<svg xmlns="http://www.w3.org/2000/svg">
<view id="fwd_right" viewBox="-.1 0 3 3"/>
<view id="fwd_left" viewBox="-.1 3 3 3"/>
<view id="fwd_left_right" viewBox="-.1 6 3 3"/>
<view id="left_right" viewBox="-.1 9 3 3"/>
<view id="left" viewBox="-.1 12 3 3"/>
<view id="right" viewBox="-.1 15 3 3"/>

<!-- fwd_right  -->
<path d="M1.5,.2l.5.5a.1,.1,0,0,1,-.1,.1h-.3v.6h.6v-.3a.1,.1,0,0,1,.1,-.1l.5,.5l-.5,.5a.1,.1,0,0,1,-.1,-.1v-.3h-.6v1h-.2v-1.8h-.3a.1,.1,0,0,1,-.1,-.1z" fill="#fff"/>

<!-- fwd_left -->
<path d="M1.5,3.2l-.5.5a.1,.1,0,0,0,.1,.1h.3v.6h-.6v-.3a.1,.1,0,0,0,-.1,-.1l-.5,.5l.5,.5a.1,.1,0,0,0,.1,-.1v-.3h.6v1h.2v-1.8h.3a.1,.1,0,0,0,.1,-.1z" fill="#fff"/>

<!-- fwd_left_right -->
<path d="M1.5,6.2l-.5.5a.1,.1,0,0,0,.1,.1h.3v.6h-.6v-.3a.1,.1,0,0,0,-.1,-.1l-.5,.5l.5,.5a.1,.1,0,0,0,.1,-.1v-.3h.6v1h.2v-1.8h.3a.1,.1,0,0,0,.1,-.1z" fill="#fff"/>
<path d="M1.5,6.2l.5.5a.1,.1,0,0,1,-.1,.1h-.3v.6h.6v-.3a.1,.1,0,0,1,.1,-.1l.5,.5l-.5,.5a.1,.1,0,0,1,-.1,-.1v-.3h-.6v1h-.2v-1.8h-.3a.1,.1,0,0,1,-.1,-.1z" fill="#fff"/>

<!-- left_right -->
<path d="M1.4,10.4h-.6v-.3a.1,.1,0,0,0,-.1,-.1l-.5,.5l.5,.5a.1,.1,0,0,0,.1,-.1v-.3h.6v1h.2v-1h.6v.3a.1,.1,0,0,0,.1,.1l.5-.5l-.5-.5a.1,.1,0,0,0,-.1,.1v.3z" fill="#fff"/>

<!-- left -->
<path d="M1.4,13.4h-.6v-.3a.1,.1,0,0,0,-.1,-.1l-.5,.5l.5,.5a.1,.1,0,0,0,.1,-.1v-.3h.6v1h.2v-1.2z" fill="#fff"/>

<!-- right -->
<path d="M1.6,16.4h.6v-.3a.1,.1,0,0,1,.1,-.1l.5,.5l-.5,.5a.1,.1,0,0,1,-.1,-.1v-.3h-.6v1h-.2v-1.2z" fill="#fff"/>

</svg>