<svg xmlns="http://www.w3.org/2000/svg">
<view id="fwd_right" viewBox="0 0 3 6"/>
<view id="fwd_left" viewBox="3 0 3 6"/>
<view id="fwd_left_right" viewBox="6 0 3 6"/>
<view id="left_right" viewBox="9 0 3 6"/>
<view id="left" viewBox="12 0 3 6"/>
<view id="right" viewBox="15 0 3 6"/>

<view id="fwd_left_lright" viewBox="18 0 3 6"/>

<defs>
<path d="M1.5,.2l.5.5a.1,.1,0,0,1,-.1,.1h-.3v.8h-.2v-.8h-.3a.1,.1,0,0,1,-.1,-.1z" fill="#fff" id="pil"/>
<path d="M1.6,1.5v4.5h-.2v-4.5z" fill="#fff" id="linje"/>
<path d="M1.5,1.5h.7v-.3a.1,.1,0,0,1,.1,-.1l.5,.5l-.5,.5a.1,.1,0,0,1,-.1,-.1v-.3h-.7z" fill="#fff" id="hoger"/>
<path d="M1.5,1.5h-.7v-.3a.1,.1,0,0,0,-.1-.1l-.5,.5l.5,.5a.1,.1,0,0,0,.1-.1v-.3h.7z" fill="#fff" id="vanster"/>
</defs>

<!-- fwd_right  -->
<use href="#pil" x="0"/>
<use href="#linje" x="0"/>
<use href="#hoger" x="0"/>

<!-- fwd_left -->
<use href="#pil" x="3"/>
<use href="#linje" x="3"/>
<use href="#vanster" x="3"/>

<!-- fwd_left_right -->
<use href="#pil" x="6"/>
<use href="#linje" x="6"/>
<use href="#vanster" x="6"/>
<use href="#hoger" x="6"/>

<!-- left_right -->
<use href="#linje" x="9"/>
<use href="#vanster" x="9"/>
<use href="#hoger" x="9"/>

<!-- left -->
<use href="#linje" x="12"/>
<use href="#vanster" x="12"/>

<!-- right -->
<use href="#linje" x="15"/>
<use href="#hoger" x="15"/>

<!-- fwd_left_lright -->
<use href="#pil" x="18"/>
<use href="#linje" x="18"/>
<use href="#vanster" x="18"/>
<use href="#hoger" x="18" y="1"/>

</svg>