<svg xmlns="http://www.w3.org/2000/svg">
<view id="fwd_right" viewBox="0 0 3 6"/>
<view id="fwd_left" viewBox="3 0 3 6"/>
<view id="fwd_left_right" viewBox="6 0 3 6"/>
<view id="left_right" viewBox="9 0 3 6"/>
<view id="left" viewBox="12 0 3 6"/>
<view id="right" viewBox="15 0 3 6"/>

<!-- fwd_right  -->
<path d="M1.5,.2l.5.5a.1,.1,0,0,1,-.1,.1h-.3v.6h.6v-.3a.1,.1,0,0,1,.1,-.1l.5,.5l-.5,.5a.1,.1,0,0,1,-.1,-.1v-.3h-.6v3h-.2v-3.8h-.3a.1,.1,0,0,1,-.1,-.1z" fill="#fff"/>

<!-- fwd_left -->
<path d="M4.5,.2l-.5.5a.1,.1,0,0,0,.1,.1h.3v.6h-.6v-.3a.1,.1,0,0,0,-.1,-.1l-.5,.5l.5,.5a.1,.1,0,0,0,.1,-.1v-.3h.6v3h.2v-3.8h.3a.1,.1,0,0,0,.1,-.1z" fill="#fff"/>

<!-- fwd_left_right -->
<path d="M7.5,.2l-.5.5a.1,.1,0,0,0,.1,.1h.3v.6h-.6v-.3a.1,.1,0,0,0,-.1,-.1l-.5,.5l.5,.5a.1,.1,0,0,0,.1,-.1v-.3h.6v3h.2v-3.8h.3a.1,.1,0,0,0,.1,-.1z" fill="#fff"/>
<path d="M7.5,.2l.5.5a.1,.1,0,0,1,-.1,.1h-.3v.6h.6v-.3a.1,.1,0,0,1,.1,-.1l.5,.5l-.5,.5a.1,.1,0,0,1,-.1,-.1v-.3h-.6v3h-.2v-3.8h-.3a.1,.1,0,0,1,-.1,-.1z" fill="#fff"/>

<!-- left_right -->
<path d="M10.4,1.4h-.6v-.3a.1,.1,0,0,0,-.1,-.1l-.5,.5l.5,.5a.1,.1,0,0,0,.1,-.1v-.3h.6v3h.2v-3h.6v.3a.1,.1,0,0,0,.1,.1l.5-.5l-.5-.5a.1,.1,0,0,0,-.1,.1v.3z" fill="#fff"/>

<!-- left -->
<path d="M13.4,1.4h-.6v-.3a.1,.1,0,0,0,-.1,-.1l-.5,.5l.5,.5a.1,.1,0,0,0,.1,-.1v-.3h.6v3h.2v-3.2z" fill="#fff"/>

<!-- right -->
<path d="M16.6,1.4h.6v-.3a.1,.1,0,0,1,.1,-.1l.5,.5l-.5,.5a.1,.1,0,0,1,-.1,-.1v-.3h-.6v3h-.2v-3.2z" fill="#fff"/>

</svg>