<svg xmlns="http://www.w3.org/2000/svg" viewBox="0 0 6 12" width="240" height="480">

<view id="fwd_left_right" viewBox="0 0 6 12"/>
<view id="fwd_left" viewBox="0 12 6 12"/>
<view id="fwd_right" viewBox="0 24 6 12"/>
<view id="left_right" viewBox="0 36 6 12"/>

<defs>
    <path id="arr_right" d="M4,2.5v-.1h.5v-.3a.1,.1,0,0,1,.1,-.1l.5,.5l-.5,.5a.1,.1,0,0,1,-.1,-.1v-.3h-.5v.1z" fill="#fff"/>
    <path id="arr_left" d="M2,2.5v-.1h-.5v-.3a.1,.1,0,0,0,-.1,-.1l-.5,.5l.5,.5a.1,.1,0,0,0,.1-.1v-.3h.5v.1z" fill="#fff"/>
    <path id="arr_fwd" d="M3,1.5h-.1v-.5h-.3a.1,.1,0,0,1,-.1,-.1l.5,-.5l.5,.5a.1,.1,0,0,1,-.1.1h-.3v.5h.1z" fill="#fff"/>
</defs>

<!--<rect x="0" y="0" width="6" height="12" fill="#000"/>-->

<!-- fwd_left_right  -->
<path d="M2.9,12v-8.6h.1a.9.9,0,1,0-.9-.9v.1h-.2v-.1a1.1,1.1,0,1,1,1.2,1.096v8.404z" fill="#fff"/>
<use href="#arr_right"/>
<use href="#arr_left"/>
<use href="#arr_fwd"/>

<!-- fwd_left  -->
<path d="M2.9,24v-8.6h.1a.9.9,0,1,0-.9-.9v.1h-.2v-.1a1.1,1.1,0,1,1,1.2,1.096v8.404z" fill="#fff"/>
<!--<path d="M3,24v-8.5a1,1,0,1,0,-1,-1h-.2" stroke-width=".2" stroke="#fff" fill="none"/>-->
<use href="#arr_left" y="12"/>
<use href="#arr_fwd" y="12"/>

<!-- fwd_right  -->
<path d="M2.9,36v-8.6h.1a.9.9,0,0,0,0-1.8h-.1v-.2h.1a1.1,1.1,0,0,1,.1,2.1955v8.4045z" fill="#fff"/>
<use href="#arr_right" y="24"/>
<use href="#arr_fwd" y="24"/>

<!-- left_right -->
<path d="M2.9,48v-8.6h.1a.9.9,0,1,0-.9-.9v.1h-.2v-.1a1.1,1.1,0,1,1,1.2,1.096v8.404z" fill="#fff"/>
<use href="#arr_right" y="36"/>
<use href="#arr_left" y="36"/>

</svg>