<svg xmlns="http://www.w3.org/2000/svg" viewBox="0 0 4 6">

<path d="M.28,1.94l.5,.5a.1,.1,0,0,0,.1,-.1v-.28h1.24c1.1,0 2.05,1.7 .7,2.65l-.75,.47v.7q0,-.4,.15,-.5l.75,-.47c1.35,-.8,.85,-3,-.85,-3.09h-1.24v-.28a.1,.1,0,0,0,-.1,-.1l-.5,.5z" fill="#fff"/>
<path d="M2,.2l-.5.5a.1,.1,0,0,0,.1,.1h.28v5.04h.24v-5.04h.28a.1,.1,0,0,0,.1,-.1z" fill="#fff"/>
<circle cx="2" cy="3.51" r=".65" fill="#fd0" stroke="#e45" stroke-width=".15"/>
<path d="M1.66,3.26h.45a.2.2,0,0,1,.2.2v.49h-.18v-.47a.05.05,0,0,0-.05-.05h-.42v.05l-.14-.14l.14-.14z" fill="#000"/>
<path d="M1.65,3l.85,1l-.08.08l-.85-1z" fill="#e45"/>

</svg>