<svg xmlns="http://www.w3.org/2000/svg" viewBox="0 0 5 9" width="200" height="360">
<view id="fwd_left_right" viewBox="5 0 5 9"/>
<view id="fwd_right" viewBox="10 0 5 9"/>

<!-- "standard" -->
<path d="M.28,1.94l.5,.5a.1,.1,0,0,0,.1,-.1v-.8a.1,.1,0,0,0,-.1,-.1l-.5,.5z" fill="#fff"/>
<g id="spansk">
<path d="M.72,2.06h1.4c1.1,0 2.05,1.7 .7,2.65l-.75,.47v.7q0,-.4,.15,-.5l.75,-.47c1.35,-.8,.85,-3,-.85,-3.09h-1.4zM2,.2l-.5.5a.1,.1,0,0,0,.1,.1h.28v7.04h.24v-7.04h.28a.1,.1,0,0,0,.1,-.1z" fill="#fff"/>
<path d="M2,2.785a.725.725,0,0,0,0,1.45a.725.725,0,0,0,0,-1.45z" fill="#e45"/>
<path d="M2,2.935a.575.575,0,0,0,0,1.15a.575.575,0,0,0,0,-1.15z" fill="#fd0"/>
<path d="M1.66,3.26h.45a.2.2,0,0,1,.2.2v.49h-.18v-.47a.05.05,0,0,0-.05-.05h-.42v.05l-.14-.14l.14-.14z" fill="#000"/>
<path d="M1.65,3l.85,1l-.08.08l-.85-1z" fill="#e45"/>
</g>

<!-- fwd_left_right -->
<use href="#spansk" x="5"/>
<path d="M5.28,1.94l.5,.5a.1,.1,0,0,0,.1,-.1v-.8a.1,.1,0,0,0,-.1,-.1l-.5,.5z" fill="#fff"/>
<path d="M9.72,1.94l-.5,.5a.1,.1,0,0,1,-.1,-.1v-.28h-2v-.24h2v-.28a.1,.1,0,0,1,.1,-.1l.5,.5z" fill="#fff"/>

<!-- fwd_right -->
<use href="#spansk" x="10"/>
<path d="M14.72,1.94l-.5,.5a.1,.1,0,0,1,-.1,-.1v-.28h-2v-.24h2v-.28a.1,.1,0,0,1,.1,-.1l.5,.5z" fill="#fff"/>
</svg>