<svg xmlns="http://www.w3.org/2000/svg" viewBox="0 0 1 1">
<view id="left" viewBox="0 0 1 1"/>
<view id="right" viewBox="1 0 1 1"/>
<view id="fwd" viewBox="2 0 1 1"/>

<!-- left -->
<path d="M0,.4l.33.33a.07.07,0,0,0,.12-.05v-.19h.25a.11.11,0,0,1,.11.11v.34h.18v-.34a.29.29,0,0,0-.29-.29h-.25v-.19a.07.07,0,0,0-.12-.05l-.33.33z" fill="#fff"/>

<!-- right -->
<path d="M1,.4m1,0l-.33.33a.07.07,0,0,1-.12-.05v-.19h-.25a.11.11,0,0,0-.11.11v.34h-.18v-.34a.29.29,0,0,1,.29-.29h.25v-.19a.07.07,0,0,1,.12-.05l.33.33z" fill="#fff"/>

<!-- fwd -->
<path d="M2.5,.05l.33.33a.07.07,0,0,1-.05.12h-.19v.45h-.18v-.45h-.19a.07.07,0,0,1,-.05-.12z" fill="#fff"/>
</svg>