<svg xmlns="http://www.w3.org/2000/svg" viewBox="0 0 1 4" width="48" height="192">
<view id="left" viewBox="0 0 1 4"/>
<view id="right" viewBox="1 0 1 4"/>
<view id="fwd" viewBox="2 0 1 4"/>
<view id="exit" viewBox="3 0 1 4"/>

<!-- left -->
<path d="M0,.4l.33.33a.07.07,0,0,0,.12-.05v-.19h.25a.11.11,0,0,1,.11.11v3.4h.18v-3.4a.29.29,0,0,0-.29-.29h-.25v-.19a.07.07,0,0,0-.12-.05l-.33.33z" fill="currentColor"/>

<!-- right -->
<path d="M1,.4m1,0l-.33.33a.07.07,0,0,1-.12-.05v-.19h-.25a.11.11,0,0,0-.11.11v3.4h-.18v-3.4a.29.29,0,0,1,.29-.29h.25v-.19a.07.07,0,0,1,.12-.05l.33.33z" fill="currentColor"/>

<!-- fwd -->
<path d="M2.5.05l.33.33a.07.07,0,0,1-.05.12h-.19v3.5h-.18v-3.5h-.19a.07.07,0,0,1,-.05-.12z" fill="currentColor"/>

<!-- exit -->
<path d="M3.25,.45l.19-.19l-.14-.14a.07.07,0,0,1,.04,-.12h.5v.5a.07.07,0,0,1,-.12,.04l-.14-.14l-.19.19q-.06,.07,-.07.16v3.25h-.19v-3.25q0,-.16,.12,-.3z" fill="currentColor"/>
</svg>