<svg viewBox="85.5395 85.536 283.465 283.465" width="40" height="40" xmlns="http://www.w3.org/2000/svg">
  <path style="fill:#111;fill-rule:nonzero;stroke:none;" d="M84.888 42.443 C84.888 19.002 65.885 0 42.444 0 C19.002 0 0 19.002 0 42.443 C0 65.884 19.002 84.887 42.444 84.887 C65.885 84.887 84.888 65.884 84.888 42.443 " transform="translate(184.828, 109.369)"/>
  <path style="fill:#111;fill-rule:nonzero;stroke:none;" d="M125.445 122.145 L132.047 122.145 L132.047 132.047 L0 132.047 L0 122.145 L6.602 122.145 C11.105 122.145 15.423 120.356 18.607 117.172 C21.791 113.987 23.58 109.668 23.58 105.166 L23.58 26.881 C23.58 22.378 21.791 18.061 18.607 14.876 C15.423 11.692 11.105 9.904 6.602 9.904 L0.471 9.904 L0.471 0 L108.468 0 L108.468 105.166 C108.468 109.668 110.256 113.987 113.44 117.172 C116.624 120.356 120.942 122.145 125.445 122.145 " transform="translate(161.248, 203.688)"/>
</svg>
