<svg viewBox="85.5395 85.536 283.465 283.465" width="40" height="40" xmlns="http://www.w3.org/2000/svg">
  <path style="fill:#111; fill-rule:nonzero;stroke:none;" d="M4.7238 124.739 L4.7238 140.803 L8.0438 140.803 C7.8289 144.878 10.391 148.586 14.2793 149.826 C18.1683 151.067 22.4033 149.528 24.5883 146.081 C26.7743 142.634 26.3593 138.146 23.5773 135.158 C20.7973 132.171 16.3503 131.436 12.7563 133.369 L12.7563 124.739 L113.858 124.739 C113.858 108.823 126.76 95.9206 142.676 95.9206 C158.593 95.9206 171.496 108.823 171.496 124.739 L251.338 124.739 C254.721 124.739 257.965 123.396 260.358 121.003 C262.75 118.612 264.094 115.366 264.094 111.984 L264.094 26.5006 C264.094 20.3776 259.89 15.0536 253.933 13.6336 C178.738 -4.29241 100.411 -4.54441 25.1023 12.8976 C19.5333 14.1876 15.5903 19.1486 15.5903 24.8646 L15.5903 107.731 C15.5253 110.63 16.0063 113.515 17.0083 116.235 L0 116.235 L0 124.739 L4.7238 124.739 " transform="translate(89.3707, 144.789)"/>
  <path style="fill:#111; fill-rule:nonzero;stroke:none;" d="M49.135 24.567 C49.135 10.999 38.136 0 24.567 0 C11 0 0 10.999 0 24.567 C0 38.136 11 49.135 24.567 49.135 C38.136 49.135 49.135 38.136 49.135 24.567 " transform="translate(207.48, 244.961)"/>
  <path style="fill:#fff;fill-rule:nonzero;stroke:none;" d="M17.953 8.976 C17.953 4.019 13.934 0 8.976 0 C4.019 0 0 4.019 0 8.976 C0 13.934 4.019 17.953 8.976 17.953 C13.934 17.953 17.953 13.934 17.953 8.976 " transform="translate(223.071, 260.552)"/>
  <path style="fill:#fff;fill-rule:nonzero;stroke:none;" d="M4.252 0 C3.124 0 2.043 0.448 1.245 1.246 C0.448 2.043 0 3.125 0 4.252 L0 29.764 C0 30.892 0.448 31.973 1.245 32.771 C2.043 33.568 3.124 34.016 4.252 34.016 L79.843 34.016 C82.191 34.016 84.095 32.112 84.095 29.764 L84.095 4.252 C84.095 3.125 83.647 2.043 82.849 1.246 C82.052 0.448 80.97 0 79.843 0 L4.252 0 " transform="translate(239.134, 160.867)"/>
  <path style="fill:#fff;fill-rule:nonzero;stroke:none;" d="M0 29.764 C0 32.112 1.904 34.016 4.252 34.016 L29.763 34.016 C30.891 34.016 31.973 33.568 32.77 32.771 C33.568 31.973 34.016 30.892 34.016 29.764 L34.016 4.252 C34.016 3.125 33.568 2.043 32.77 1.246 C31.973 0.448 30.891 0 29.763 0 L4.252 0 C3.124 0 2.043 0.448 1.245 1.246 C0.448 2.043 0 3.125 0 4.252 L0 29.764 " transform="translate(141.339, 160.867)"/>
  <path style="fill:#111; fill-rule:nonzero;stroke:none;" d="M264.567 23.622 L0 23.622 L0 0 L264.567 0 L264.567 23.622 " transform="translate(95.0395, 295.04)"/>
</svg>
