<svg viewBox="85.5395 85.536 283.465 283.465" width="40" height="40" xmlns="http://www.w3.org/2000/svg">
  <path style="fill:#111; fill-rule:nonzero;stroke:none;" d="M27.874 186.758 l-27.874 0 L0 165.97 L80.314 165.97 L80.314 186.758 L54.803 186.758 L54.803 215.104 L142.205 215.104 L142.205 144.711 L71.81 144.711 L113.858 102.664 L95.433 102.664 L137.953 60.144 L120 60.144 L154.724 0 L189.449 60.144 L170.551 60.144 L213.071 102.664 L194.645 102.664 L236.693 144.711 L165.827 144.711 L165.827 215.104 L235.276 215.104 L235.276 236.836 L0 236.836 L0 215.104 L0.472 215.104 L18.425 215.104 L27.874 215.104 L27.874 186.758 " transform="translate(103.02, 107.597)"/>
</svg>
