<svg viewBox="85.5395 85.536 283.465 283.465" width="40" height="40" xmlns="http://www.w3.org/2000/svg">
  <path style="fill:#111; fill-rule:nonzero;stroke:none;" d="M0 186.142 L94.488 186.142 L94.488 0 L0 0 L0 186.142 " transform="translate(180.028, 134.197)"/>
  <path style="fill:#111; fill-rule:nonzero;stroke:none;" d="M22.205 51.024 L22.205 19.843 L123.307 19.843 L123.307 51.024 L129.912 51.024 L145.512 0 L72.756 0 L0 0 L15.599 51.024 L22.205 51.024 " transform="translate(154.516, 111.52)"/>
  <path style="fill:#111; fill-rule:nonzero;stroke:none;" d="M248.504 18.899 L248.504 0 L0 0 L0 18.899 L124.252 18.899 L248.504 18.899 " transform="translate(103.02, 324.118)"/>
  <path style="fill:#fff;fill-rule:nonzero;stroke:none;" d="M9.76068 27.8083 C15.4247 31.8753 20.2397 37.0113 23.9337 42.9263 C27.6267 37.0113 32.4417 31.8753 38.1067 27.8083 C42.6047 24.5373 45.9197 19.8953 47.5557 14.5803 C49.0257 8.2613 45.1567 1.9313 38.8637 0.357298 C32.5697 -1.2157 26.1767 2.5493 24.5007 8.8163 C24.4597 9.0963 24.2477 9.3213 23.9697 9.3773 C23.6597 9.3593 23.4077 9.1233 23.3667 8.8163 C21.6907 2.5493 15.2977 -1.2157 9.00368 0.357298 C2.70968 1.9313 -1.15832 8.2613 0.311676 14.5803 C1.94668 19.8953 5.26268 24.5373 9.76068 27.8083 " transform="translate(203.338, 177.728)"/>
</svg>
