<svg viewBox="85.5395 85.536 283.465 283.465" width="40" height="40" xmlns="http://www.w3.org/2000/svg">
  <path style="fill:#111; fill-rule:nonzero;stroke:none;" d="M0 33.1649 C3.9951 32.7439 8.0101 33.7479 11.3381 35.9989 C29.9011 47.3369 53.2481 47.3369 71.8111 35.9989 C79.8951 32.2189 89.2391 32.2189 97.3231 35.9989 C115.885 47.3369 139.232 47.3369 157.795 35.9989 C165.879 32.2189 175.223 32.2189 183.307 35.9989 C201.869 47.3369 225.216 47.3369 243.78 35.9989 C247.107 33.7479 251.123 32.7439 255.117 33.1649 L255.117 0.0938666 C251.123 -0.327133 247.107 0.676867 243.78 2.92787 C225.216 14.2659 201.869 14.2659 183.307 2.92787 C175.223 -0.852133 165.879 -0.852133 157.795 2.92787 C139.232 14.2659 115.885 14.2659 97.3231 2.92787 C89.2391 -0.852133 79.8951 -0.852133 71.8111 2.92787 C53.2481 14.2659 29.9011 14.2659 11.3381 2.92787 C8.0101 0.676867 3.9951 -0.327133 0 0.0938666 L0 33.1649 " transform="translate(99.7129, 248.435)"/>
  <path style="fill:#111; fill-rule:nonzero;stroke:none;" d="M255.117 33.1639 C251.123 32.7439 247.107 33.7479 243.78 35.9989 C225.216 47.3379 201.869 47.3379 183.307 35.9989 C175.223 32.2189 165.879 32.2189 157.795 35.9989 C139.232 47.3379 115.885 47.3379 97.3231 35.9989 C89.2391 32.2189 79.8951 32.2189 71.8111 35.9989 C53.2481 47.3379 29.9011 47.3379 11.3381 35.9989 C8.0101 33.7479 3.9951 32.7439 0 33.1639 L0 0.0938666 C3.9951 -0.327133 8.0101 0.676867 11.3381 2.92787 C29.9011 14.2659 53.2481 14.2659 71.8111 2.92787 C79.8951 -0.852133 89.2391 -0.852133 97.3231 2.92787 C115.885 14.2659 139.232 14.2659 157.795 2.92787 C165.879 -0.852133 175.223 -0.852133 183.307 2.92787 C201.869 14.2659 225.216 14.2659 243.78 2.92787 C247.107 0.676867 251.123 -0.327133 255.117 0.0938666 L255.117 33.1639 " transform="translate(99.7129, 305.128)"/>
  <path style="fill:#111; fill-rule:nonzero;stroke:none;" d="M173.371 150.866 C162.228 151.136 151.244 148.19 141.732 142.379 C133.648 138.6 124.304 138.6 116.22 142.379 C97.657 153.718 74.31 153.718 55.748 142.379 C47.664 138.6 38.32 138.6 30.236 142.379 C21.131 147.941 10.669 150.883 0 150.883 L8.314 143.325 C13.658 137.68 19.44 132.467 25.606 127.734 C29.024 124.506 33.225 122.226 37.794 121.12 L48.189 117.34 L58.582 113.56 C62.046 112.234 64.558 109.183 65.196 105.529 L65.896 99.5816 C65.921 99.1616 65.873 98.7406 65.752 98.3366 C65.505 97.5896 65.118 96.8976 64.61 96.2966 C64.26 95.8996 63.845 95.5646 63.383 95.3056 C62.987 95.0886 62.583 94.8876 62.171 94.7026 L54.81 91.8986 C54.105 91.6226 53.392 91.3646 52.673 91.1256 C50.905 90.4036 49.71 88.7276 49.606 86.8206 C49.411 84.2386 49 81.6786 48.378 79.1666 C47.181 76.2086 46.171 73.1796 45.354 70.0956 C45.101 67.1086 45.101 64.1056 45.354 61.1196 L45.826 57.3396 L46.299 53.5596 C47.039 49.6766 46.368 45.6556 44.409 42.2216 C39.692 31.7606 41.474 19.5116 48.977 10.8286 C49.667 10.0496 50.451 9.35857 51.31 8.77057 C57.535 4.59357 64.595 1.82157 72 0.646571 C83.13 -0.915429 94.476 0.363571 104.98 4.36557 C106.708 5.05157 108.362 5.91057 109.919 6.92657 C114.251 10.1126 117.716 14.3326 120 19.2016 C120.513 20.3936 120.947 21.6196 121.298 22.8676 C123.884 33.5476 125.349 44.4666 125.669 55.4496 L125.669 59.9336 C125.656 60.1826 125.634 60.4306 125.607 60.6786 C125.009 65.2116 123.417 69.5566 120.945 73.4026 L112.913 87.5766 C111.899 89.6286 111.412 91.9016 111.496 94.1906 L111.496 100.804 C111.56 102.691 112.311 104.489 113.606 105.863 C114.21 106.417 114.869 106.909 115.57 107.335 C115.97 107.585 116.375 107.828 116.784 108.063 C120.282 110.217 123.878 112.209 127.558 114.033 L140.314 120.647 C150.066 125.684 158.609 132.776 165.354 141.434 L173.385 150.883 L173.371 150.866 " transform="translate(141.288, 94.3384)"/>
</svg>
