<svg viewBox="85.5395 85.536 283.465 283.465" width="40" height="40" xmlns="http://www.w3.org/2000/svg">
  <path style="fill:#111; fill-rule:nonzero;stroke:none;" d="M104.465 38.3904 C104.648 42.1584 106.407 45.6764 109.314 48.0804 C110.742 48.9994 112.051 50.0934 113.209 51.3344 C116.866 55.1364 120.052 59.3654 122.696 63.9294 C126.048 68.8354 128.899 74.0644 131.21 79.5384 C132.017 81.6674 132.787 83.8114 133.519 85.9674 C134.974 90.5684 136.499 95.1474 138.093 99.7014 C139.338 102.421 138.815 105.623 136.771 107.804 C136.098 108.367 135.239 108.656 134.363 108.617 C131.987 108.677 129.823 107.251 128.942 105.043 C126.544 98.8984 124.416 92.6504 122.564 86.3194 C122.308 85.4714 121.927 84.6674 121.431 83.9334 C119.062 80.4144 116.308 77.1724 113.219 74.2654 C113.146 80.2814 114.252 86.2534 116.474 91.8444 C119.067 98.9004 122.079 105.796 125.493 112.494 C129.444 120.585 133.858 128.441 138.713 136.025 C134.573 138.142 130.271 139.923 125.847 141.351 C129.702 149.363 132.976 157.638 135.648 166.119 C139.169 157.099 143.376 148.365 148.228 139.988 C151.62 133.814 155.171 127.728 158.877 121.74 C162.724 116.165 165.704 110.042 167.715 103.576 C168.939 99.9534 169.204 96.0754 168.482 92.3194 C168.05 90.3384 167.524 88.3804 166.907 86.4484 C165.101 86.8104 163.226 86.5634 161.575 85.7474 C161.069 85.4824 160.625 85.1124 160.273 84.6634 C159.752 83.9224 159.351 83.1054 159.085 82.2404 C158.731 81.2874 158.37 80.3374 158.001 79.3894 C154.269 69.9154 151.4 60.1244 149.433 50.1334 C148.83 48.0374 149.646 45.7914 151.454 44.5714 C152.171 43.9954 153.089 43.7274 154.003 43.8284 C154.917 43.9284 155.755 44.3884 156.33 45.1064 C158.758 48.2424 160.966 51.5404 162.94 54.9784 C165.608 52.3004 167.155 48.7064 167.267 44.9274 C167.521 42.8424 167.644 40.7424 167.64 38.6424 C167.665 37.9624 167.515 37.2874 167.204 36.6824 C166.827 35.6934 166.435 34.7104 166.026 33.7344 C165.81 33.2314 165.483 32.7844 165.071 32.4264 C164.382 31.8514 163.529 31.5094 162.634 31.4494 C158.112 31.2524 154.396 27.8144 153.849 23.3214 C153.55 21.5704 153.271 19.8174 153.01 18.0604 C152.445 15.0994 152.197 12.0854 152.271 9.07239 C152.884 4.47739 156.505 0.866387 161.101 0.264387 C164.448 -0.283613 167.88 0.0233869 171.076 1.15639 C171.752 1.43439 172.394 1.79039 172.986 2.21739 C175.286 4.12439 176.86 6.76339 177.446 9.69339 C177.714 12.7174 177.927 15.7464 178.085 18.7784 C178.548 21.7924 179.377 24.7384 180.554 27.5514 C181.005 28.7304 181.901 29.6844 183.05 30.2084 C185.317 31.1684 187.503 32.3154 189.583 33.6364 L186.491 20.6384 C190.495 19.0764 194.626 17.8584 198.837 16.9954 C202.603 16.8414 205.993 19.2554 207.081 22.8634 C211.587 39.9944 215.882 57.1804 219.967 74.4164 C220.435 78.3534 218.231 82.1224 214.569 83.6444 C211.03 84.6924 207.47 85.6694 203.892 86.5784 C205.22 90.6224 205.341 94.9644 204.24 99.0754 C202.709 104.718 201.849 110.521 201.681 116.365 C201.635 125.328 203.176 134.226 206.233 142.65 C211.65 157.029 218.759 170.714 227.407 183.415 L211.409 192.824 C204.74 183.246 198.587 173.32 192.978 163.083 C187.28 150.744 183.065 137.773 180.421 124.439 C171.646 138.042 163.653 152.136 156.488 166.654 C152.675 175.173 149.364 183.91 146.576 192.816 C140.51 190.611 134.468 188.339 128.451 185.999 C129.136 183.771 129.857 181.552 130.614 179.347 C125.042 167.33 118.667 155.701 111.533 144.54 C104.252 144.621 96.9799 144.005 89.8179 142.699 C88.0889 152.638 84.2639 162.097 78.5979 170.443 C77.8329 171.566 77.0819 172.699 76.3439 173.839 C75.0049 175.9 73.9909 178.154 73.3369 180.523 C72.6319 183.451 71.6729 186.312 70.4699 189.076 C67.6729 188.226 64.8909 187.33 62.1249 186.382 C64.5749 179.331 66.9699 172.261 69.3099 165.171 C71.7489 156.785 73.7279 148.269 75.2369 139.665 C75.6949 137.359 76.1809 135.058 76.6949 132.763 C80.2169 115.898 82.2139 98.7524 82.6619 81.5304 C79.6719 86.7724 76.6929 92.0214 73.7239 97.2754 C72.0719 99.9864 70.5419 102.77 69.1389 105.619 C67.6989 107.955 65.9849 110.113 64.0329 112.042 C63.2509 112.74 62.7979 113.734 62.7829 114.783 C61.9329 118.497 61.1279 122.224 60.3699 125.958 C60.2479 126.759 59.9699 127.529 59.5519 128.222 C59.4029 128.423 59.2349 128.611 59.0519 128.781 C58.7159 129.072 58.3279 129.296 57.9099 129.441 C56.7609 129.703 55.5679 129.703 54.4189 129.443 C51.4979 128.923 48.6239 128.167 45.8269 127.179 C46.0829 130.99 46.1979 134.81 46.1709 138.63 C46.3959 144.945 46.6649 151.255 46.9789 157.566 C47.2599 162.792 48.6459 167.898 51.0419 172.55 C53.2979 176.556 55.7099 180.472 58.2739 184.287 C55.2709 186.292 52.2449 188.263 49.1949 190.197 C45.2399 184.767 41.5459 179.152 38.1239 173.369 C37.0869 171.947 36.3859 170.308 36.0729 168.576 C34.9529 163.654 33.9179 158.712 32.9669 153.753 C30.2759 158.537 27.6779 163.371 25.1739 168.253 C22.0359 175.199 19.2229 182.287 16.7459 189.492 C13.3029 188.615 9.89086 187.622 6.51486 186.517 C7.18186 184.109 7.98586 181.74 8.92386 179.423 C10.8469 175.054 12.6399 170.628 14.3009 166.154 C17.1099 159.667 19.5599 153.031 21.6389 146.275 C22.3829 142.693 22.8869 139.066 23.1459 135.415 C19.3619 137.499 15.5429 139.517 11.6899 141.468 C9.99086 142.224 8.45586 143.302 7.16586 144.642 C6.09486 146.058 4.52886 147.021 2.78086 147.339 C1.97686 147.464 1.16386 147.175 0.618864 146.57 C0.0738644 145.964 -0.128136 145.124 0.0808644 144.337 C0.738864 141.281 2.59086 138.613 5.22386 136.925 C7.59086 135.566 9.84286 134.017 11.9579 132.29 C14.6689 129.953 17.2719 127.492 19.7559 124.912 C22.0919 122.21 24.6489 119.706 27.4019 117.431 C28.5819 116.472 29.5199 115.249 30.1399 113.863 C30.6869 112.509 30.1259 110.96 28.8379 110.273 C28.0349 109.88 27.2289 109.494 26.4199 109.115 C25.1529 108.509 24.2629 107.324 24.0349 105.938 C23.5129 104.075 23.2569 102.147 23.2769 100.212 C23.1829 99.1174 23.1609 98.0174 23.2119 96.9194 C23.1249 95.7084 23.2239 94.4914 23.5059 93.3094 C24.1679 90.2424 26.3369 87.7194 29.2689 86.6044 C32.6649 85.3434 36.3999 85.3414 39.7969 86.6004 C42.0439 87.4174 43.7689 89.2514 44.4499 91.5424 C45.3479 93.7814 45.8029 96.1714 45.7919 98.5834 C45.9079 101.985 45.3699 105.378 44.2059 108.578 C43.2309 110.746 44.0039 113.302 46.0169 114.566 C48.0969 115.693 50.1809 116.81 52.2699 117.917 C53.0989 115.726 53.8889 113.521 54.6399 111.304 C55.2699 109.515 55.8349 107.705 56.3329 105.875 C56.4509 104.581 57.0599 103.382 58.0349 102.523 C59.9619 100.28 61.7619 97.9304 63.4239 95.4844 C65.3509 92.4014 67.1089 89.2164 68.6919 85.9424 C69.2809 84.5594 69.8129 83.1534 70.2879 81.7264 C73.2749 71.5594 78.2969 62.1054 85.0489 53.9374 C86.8079 52.0014 88.3959 49.9174 89.7929 47.7054 C89.9589 47.4254 90.0909 47.1274 90.1869 46.8164 C90.7129 45.0804 90.6559 43.2204 90.0249 41.5194 C89.4499 40.6644 88.6619 39.9744 87.7399 39.5174 C85.5509 38.2834 83.9299 36.2444 83.2219 33.8334 C82.4049 31.2214 82.1749 28.4624 82.5459 25.7514 C82.9369 23.6094 82.9199 21.4134 82.4969 19.2784 C82.0029 17.3064 82.3479 15.2174 83.4489 13.5084 C87.1019 8.64639 93.1689 6.23839 99.1619 7.27139 C104.22 8.80539 108.192 12.7424 109.771 17.7874 C110.995 21.3144 112.64 24.6814 114.668 27.8174 C115.892 30.0154 117.601 31.9044 119.665 33.3404 C119.712 33.3704 119.754 33.4084 119.789 33.4514 C119.832 33.5154 119.849 33.5934 119.839 33.6704 C119.829 33.7154 119.808 33.7584 119.778 33.7934 C119.739 33.8354 119.692 33.8724 119.642 33.9004 C119.603 33.9174 119.564 33.9344 119.524 33.9494 C114.663 35.9214 109.619 37.4094 104.465 38.3904 " transform="translate(133.69, 153.189)"/>
  <path style="fill:#111; fill-rule:nonzero;stroke:none;" d="M54.1399 69.18 C53.6079 59.512 57.3949 50.108 64.4789 43.507 C77.0639 32.671 92.2079 25.229 108.475 21.885 C131.169 16.772 154.362 14.209 177.625 14.247 L220.85 14.247 L220.85 0 L0 0 L0 255.413 L15.9519 255.413 L15.9519 223.385 C15.6489 205.893 17.4399 188.428 21.2879 171.362 C30.0059 137.713 60.3609 114.206 95.1219 114.187 L95.1469 101.402 C83.7529 101.208 72.7299 97.315 63.7409 90.31 C57.6609 84.968 54.1649 77.274 54.1399 69.18 " transform="translate(99.1461, 99.143)"/>
</svg>
