<svg viewBox="85.5395 85.536 283.465 283.465" width="40" height="40" xmlns="http://www.w3.org/2000/svg">
  <path style="fill:#111; fill-rule:nonzero;stroke:none;" d="M21.498 38.7018 C22.34 35.8948 23.363 33.1448 24.561 30.4698 C26.837 30.6838 29.018 29.4988 30.078 27.4728 C32.815 23.0508 33.987 17.8368 33.405 12.6688 C33.119 8.86576 31.33 5.33176 28.436 2.84776 C25.1 0.327759 20.816 -0.581241 16.744 0.367759 C10.891 0.160759 5.094 1.58076 0 4.46976 L2.592 7.77376 C5.559 5.27776 8.957 3.34176 12.618 2.06176 C12.051 2.83976 11.595 3.69076 11.264 4.59376 C10.8 5.75976 10.438 6.96576 10.183 8.19476 C9.834 9.79376 9.725 11.4378 9.86 13.0698 C10.259 16.1458 11.145 19.1388 12.483 21.9368 C12.766 22.5378 12.856 23.2108 12.741 23.8638 C12.55 25.2348 12.02 26.5358 11.197 27.6478 C16.276 29.3588 20.149 33.5158 21.498 38.7018 " transform="translate(264.086, 144.676)"/>
  <path style="fill:#111; fill-rule:nonzero;stroke:none;" d="M38.638 36.2935 C38.987 35.9975 39.293 35.6545 39.547 35.2745 C40.354 33.8105 41.051 32.2895 41.632 30.7225 C44.302 23.3905 44.206 15.3355 41.362 8.0685 C39.962 5.1345 37.518 2.8285 34.508 1.5985 C30.081 -0.637496 24.832 -0.521496 20.508 1.9075 C13.299 2.2795 6.276 4.3305 0 7.8975 L3.659 12.4735 C7.622 8.9825 12.245 6.3245 17.256 4.6565 C15.611 6.6585 14.591 9.1005 14.326 11.6775 C14.098 15.0085 14.747 18.3415 16.207 21.3435 C17.298 23.1525 18.065 25.1365 18.475 27.2085 C18.533 29.5925 18.167 31.9675 17.394 34.2235 C22.194 36.0185 26.007 39.7665 27.884 44.5345 C29.208 42.0435 30.524 39.5475 31.83 37.0475 C34.045 38.1825 36.725 37.8855 38.638 36.2935 " transform="translate(180.001, 118.928)"/>
  <path style="fill:#111; fill-rule:nonzero;stroke:none;" d="M138.597 80.5347 C137.963 79.1707 137.466 77.7477 137.112 76.2857 C136.388 73.2107 136.034 70.0597 136.058 66.9007 C136.755 70.4227 137.79 73.8697 139.151 77.1927 C140.79 81.5397 143.356 85.4787 146.67 88.7357 C147.81 90.0187 149.328 90.9057 151.006 91.2687 C152.347 91.4987 153.7 90.9327 154.478 89.8167 C154.587 89.6347 154.692 89.4517 154.794 89.2657 C157.414 84.3167 159.843 79.2697 162.077 74.1347 C163.563 70.3127 164.825 66.4057 165.856 62.4357 C166.6 58.8207 166.735 55.1077 166.256 51.4487 C166.074 49.5727 165.547 47.7467 164.701 46.0627 C164.667 46.0047 164.627 45.9487 164.582 45.8977 C163.526 44.7187 161.809 44.3957 160.397 45.1127 C160.077 45.2807 159.806 45.5277 159.612 45.8317 C157.602 49.5987 155.618 53.3807 153.661 57.1747 C153.047 53.1947 152.042 49.2847 150.662 45.5017 C149.536 42.0627 147.58 38.9537 144.966 36.4517 C142.538 34.0697 139.14 32.9537 135.772 33.4327 C133.272 34.0207 131.047 35.4437 129.465 37.4667 L133.696 22.1657 L120.733 18.1117 C117.278 17.5937 113.935 19.5807 112.739 22.8627 L97.289 78.7577 C96.632 80.7727 96.845 82.9697 97.877 84.8207 C98.909 86.6717 100.667 88.0077 102.726 88.5067 L116.083 91.5417 C116.052 92.7027 116.043 93.8657 116.059 95.0277 C116.112 97.0527 116.231 99.0767 116.415 101.094 C116.685 104.456 117.29 107.784 118.219 111.026 C118.552 112.381 118.882 113.736 119.209 115.091 C119.514 116.683 119.753 118.286 119.925 119.897 C119.974 121.768 119.871 123.639 119.616 125.493 C119.307 127.842 118.828 130.165 118.184 132.442 C117.464 134.995 116.702 137.534 115.899 140.061 C114.432 144.799 112.62 149.426 110.481 153.903 C108.642 158.069 106.569 162.128 104.274 166.059 C101.932 158.485 99.204 151.036 96.105 143.741 C96.041 143.581 95.975 143.421 95.906 143.262 C92.194 133.667 88.014 124.256 83.378 115.071 C83.317 114.945 83.253 114.819 83.187 114.696 C79.746 107.397 75.405 100.559 70.264 94.3397 L73.852 85.5007 C67.778 79.3887 63.113 72.0237 60.183 63.9207 C58.253 59.2877 57.452 54.2627 57.845 49.2597 C58.67 52.2527 59.649 55.2007 60.78 58.0927 C63.173 65.0577 67.212 71.3417 72.554 76.4127 C73.187 76.9897 73.919 77.4477 74.716 77.7647 C76.395 78.1687 78.142 77.4367 79.031 75.9557 C81.142 72.4807 83.144 68.9397 85.034 65.3397 C85.246 64.9317 85.444 64.5177 85.627 64.0967 C87.864 58.6767 89.73 53.1117 91.208 47.4377 C91.326 46.9427 91.431 46.4457 91.522 45.9447 C92.664 40.4267 92.579 34.7257 91.276 29.2447 C91.102 28.7367 90.79 28.2877 90.376 27.9467 C89.165 26.9547 87.458 26.8407 86.126 27.6627 C86.028 27.7327 85.933 27.8067 85.842 27.8857 C85.338 28.3887 84.901 28.9557 84.542 29.5707 L77.107 41.3437 C76.667 34.4007 74.601 27.6597 71.074 21.6647 C70.508 20.6807 69.918 19.7117 69.305 18.7577 C67.498 16.0407 64.53 14.3197 61.274 14.1027 C58.019 13.8847 54.847 15.1957 52.696 17.6487 L56.374 3.4047 L40.819 0.240697 C38.661 -0.280303 36.386 0.0516966 34.467 1.1667 C33.746 1.6267 33.103 2.1967 32.56 2.8567 C31.764 3.7527 31.192 4.8237 30.891 5.9827 L15.087 65.0167 C15.034 65.2297 14.994 65.4457 14.966 65.6627 C14.394 70.1377 17.311 74.3167 21.709 75.3207 L38.244 78.6327 L37.925 80.1837 L37.76 81.0547 C37.337 83.5677 36.971 86.0897 36.664 88.6197 L36.606 89.7197 L36.554 91.0877 L36.624 92.6287 L36.737 94.7207 L36.98 96.6617 L37.203 98.0047 C37.432 99.2737 37.724 100.533 38.077 101.774 L38.689 104.375 L39.079 106.645 L39.659 110.19 L39.727 112.889 L39.603 114.833 L39.391 117.425 L39.026 119.434 L38.433 121.493 L37.61 124.223 L36.726 126.614 L35.14 130.368 L33.935 133.145 L32.784 135.471 L30.674 139.833 L27.184 146.641 L24.401 151.86 L20.59 158.532 L17.112 164.422 L12.337 171.733 L7.225 179.528 L0 190.215 L16.383 203.411 L19.411 199.061 L26.8 188.04 C30.409 182.891 33.836 177.616 37.072 172.225 L40.196 166.932 C44.651 159.77 48.799 152.422 52.631 144.909 C55.954 138.294 59.151 131.618 62.221 124.881 C65.354 128.669 68.279 132.624 70.982 136.729 L72.123 138.725 C75.497 144.526 78.415 150.581 80.851 156.835 L82.354 160.967 C84.844 167.981 87.172 175.049 89.335 182.169 L89.755 183.592 C91.467 189.811 93.187 196.028 94.913 202.243 L106.389 202.331 C107.42 200.657 108.433 198.971 109.425 197.276 C110.468 195.391 111.515 193.506 112.565 191.626 L116.601 184.13 C120.054 177.733 123.36 171.26 126.516 164.713 C126.893 163.94 127.278 163.172 127.67 162.407 C130.151 156.963 132.51 151.465 134.746 145.917 L135.513 144.071 C137.223 140.028 138.817 135.938 140.296 131.805 C142.368 134.665 144.319 137.61 146.14 140.633 L146.714 141.598 C149.099 145.712 151.225 149.971 153.077 154.348 L154.276 156.991 C156.759 162.682 159.077 168.442 161.23 174.266 L161.946 176.198 C164.063 181.741 165.97 187.364 167.661 193.051 L170.327 201.397 L187.304 194.987 C185.414 189.12 183.476 183.268 181.487 177.434 C178.952 170.02 176.095 162.719 172.923 155.555 C170.069 148.2 166.948 140.952 163.565 133.825 C160.932 128.471 158.05 123.243 154.929 118.158 C152.535 114.194 149.89 110.387 147.01 106.76 L150.7 96.2297 C147.885 93.8627 145.356 91.1727 143.169 88.2157 C141.411 85.8017 139.881 83.2307 138.597 80.5357 C138.597 80.5357 138.597 80.5357 138.597 80.5347 " transform="translate(133.558, 141.764)"/>
</svg>
