<svg viewBox="85.5395 85.536 283.465 283.465" width="40" height="40" xmlns="http://www.w3.org/2000/svg">
  <path style="fill:#111; fill-rule:nonzero;stroke:none;" d="M0 49.374 L112.52 30.874 L112.598 31.851 L114.422 32.47 L114.78 56.311 L88.2831 58.116 C76.7101 60.14 68.5691 70.625 69.4751 82.339 L69.3841 121.423 C67.5911 124.203 66.2741 127.263 65.4881 130.476 L57.7031 161.239 C56.7731 163.784 57.0121 166.61 58.3551 168.963 C59.6991 171.316 62.0101 172.958 64.6751 173.451 L70.7701 175.142 L71.1381 202.486 L137.403 194.761 L142.521 253.66 L186.596 248.318 C181.948 244.3 176.566 241.222 170.746 239.253 C169.469 238.529 168.724 237.132 168.832 235.665 L168.701 189.955 C168.777 186.951 167.583 184.052 165.412 181.972 C163.242 179.892 160.296 178.824 157.297 179.029 L158.868 228.128 C158.92 230.591 158.824 233.056 158.582 235.507 C157.367 233.271 156.654 230.796 156.492 228.257 L154.607 184.076 C154.377 179.865 151.714 176.175 147.79 174.63 C147.694 174.595 147.598 174.564 147.501 174.535 C144.707 173.763 141.802 173.466 138.908 173.66 L118.291 174.482 L110.799 152.949 C109.879 150.931 109.187 148.817 108.738 146.646 C107.114 140.942 105.102 135.357 102.716 129.929 C100.908 126.794 97.9081 124.524 94.4001 123.637 C93.5781 123.391 92.9841 122.677 92.8911 121.824 C92.7981 120.972 93.2251 120.146 93.9741 119.73 C95.8481 118.999 97.5711 117.931 99.0591 116.58 C99.3891 116.268 99.6741 115.913 99.9091 115.525 C100.828 113.966 101.353 112.207 101.437 110.4 C101.808 107.762 101.699 105.08 101.118 102.48 C100.984 101.634 100.854 100.787 100.726 99.941 C100.513 96.603 99.8391 93.311 98.7251 90.158 C98.5631 89.787 98.3711 89.429 98.1531 89.087 C96.4471 86.54 93.9081 84.664 90.9731 83.779 C83.8811 81.538 76.2391 84.991 73.2331 91.794 L73.2551 82.348 C72.2741 72.596 78.9101 63.712 88.5411 61.887 L118.559 59.842 L118.559 56.254 L118.201 32.413 L119.289 29.845 L276.076 4.785 L276.076 0 L118.804 25.138 L118.629 23.44 C116.371 23.761 114.167 24.385 112.076 25.296 L112.144 26.148 L0 44.585 L0 49.374 " transform="translate(88.9219, 88.064)"/>
  <path style="fill:#fff;fill-rule:nonzero;stroke:none;" d="M0.018 0 C1.566 3.721 3.853 7.089 6.742 9.9 C7.045 10.138 7.242 10.486 7.289 10.869 C7.289 10.894 7.289 10.921 7.287 10.946 C7.246 11.212 7.096 11.449 6.874 11.6 C6.64 11.709 6.379 11.752 6.123 11.723 C5.978 11.696 5.837 11.659 5.699 11.611 C3.849 11.076 1.908 10.932 0 11.185 L0.026 0.02 L0.018 0 " transform="translate(162.09, 196.476)"/>
</svg>
