<svg viewBox="85.5395 85.536 283.465 283.465" width="40" height="40" xmlns="http://www.w3.org/2000/svg">
  <path style="fill:#111; fill-rule:nonzero;stroke:none;" d="M241.489 196.983 C246.622 192.017 251.147 186.462 254.973 180.432 C254.302 185.225 253.193 189.947 251.659 194.537 C250.557 197.476 248.915 200.182 246.814 202.514 C244.655 204.121 242.254 205.375 239.702 206.229 L95.6549 264.621 L78.4089 264.794 L141.213 239.284 C140.487 237.105 139.725 234.939 138.926 232.786 L59.6949 264.942 L45.4049 264.886 L117.545 235.611 C114.292 227.667 110.96 219.755 107.55 211.876 C105.052 206.386 102.227 201.048 99.0919 195.895 C92.5379 185.462 85.7519 175.177 78.7399 165.046 C76.0199 164.324 73.3519 163.423 70.7519 162.348 C68.8829 161.709 67.7109 159.854 67.9359 157.892 C91.1109 165.457 116.233 164.436 138.718 155.017 L136.182 142.843 C123.567 148.202 109.947 150.782 96.2449 150.411 L151.483 97.311 L152.445 96.393 L151.407 97.232 L110.311 129.409 L85.6509 149.534 C78.1939 148.495 70.8869 146.579 63.8789 143.825 L29.4239 214.548 L35.0119 220.142 L32.6719 222.479 L27.8919 217.693 L20.4989 232.869 L16.6759 231.007 L24.7129 214.509 L19.9069 209.698 L22.2469 207.361 L26.2449 211.364 L54.2029 153.979 L14.5079 210.503 L19.6029 215.548 L17.2759 217.899 L12.5799 213.249 L3.4797 226.207 L0 223.763 L9.5159 210.214 L4.1199 204.871 L6.4469 202.521 L11.4429 207.468 L61.7479 135.837 C58.5419 125.958 55.7189 115.959 53.2839 105.862 C52.7779 107.601 52.7109 109.439 53.0899 111.21 C54.4219 118.7 56.3279 126.075 58.7899 133.272 C58.9979 133.778 59.1249 134.314 59.1639 134.86 C59.1469 136.065 58.4759 137.165 57.4119 137.732 C56.7779 137.964 56.0919 138.022 55.4279 137.897 C51.9329 137.129 48.5679 135.857 45.4399 134.121 C41.8219 132.518 39.8229 128.6 40.6489 124.73 C40.9829 116.274 42.1159 107.868 44.0319 99.625 C44.8319 95.168 46.4389 90.894 48.7759 87.014 C49.8559 85.195 51.5179 83.792 53.4919 83.031 C55.3639 82.275 57.1179 81.255 58.6999 80.002 C59.3969 79.539 59.8349 78.773 59.8809 77.937 C59.9259 77.101 59.5739 76.292 58.9309 75.756 C56.0069 72.413 52.9849 69.157 49.8689 65.993 C48.3389 64.298 47.2329 62.265 46.6409 60.06 C45.4079 54.872 45.7309 49.436 47.5679 44.43 C48.7719 41.821 50.9229 39.769 53.5849 38.688 C59.7799 36.208 66.7329 36.446 72.7449 39.344 C75.2699 40.973 77.1929 43.381 78.2229 46.203 C79.6949 50.109 80.8229 54.136 81.5969 58.238 C82.2829 62.763 80.1519 67.252 76.2129 69.581 C74.7019 70.138 73.5239 71.347 73.0049 72.871 C72.4399 74.703 73.3849 76.66 75.1699 77.358 C84.8129 81.52 95.1409 83.871 105.635 84.296 C118.154 85.475 130.716 86.155 143.29 86.334 C148.708 86.142 154.127 86.031 159.549 86.001 C160.702 85.149 161.993 84.502 163.366 84.089 L258.887 0 L265.322 0 L169.315 84.518 C170.356 85.868 170.387 87.741 169.391 89.124 C168.678 89.965 167.819 90.669 166.854 91.202 C165.51 92.008 164.004 92.509 162.446 92.67 L114.575 138.689 C115.594 140.638 116.669 142.557 117.799 144.444 C125.295 143.036 132.543 140.532 139.311 137.016 L143.475 157.002 C138.124 159.27 132.674 161.298 127.141 163.08 C132.235 172.185 136.664 181.646 140.393 191.389 C144.107 201.554 147.493 211.837 150.543 222.22 L216.606 195.412 C219.088 194.367 221.276 192.728 222.975 190.638 C225.489 187.729 227.733 184.597 229.68 181.282 C229.754 185.191 229.247 189.089 228.176 192.849 C227.659 195.022 226.211 196.856 224.217 197.863 C222.735 198.644 221.219 199.362 219.674 200.013 L152.052 227.459 C152.679 229.68 153.292 231.906 153.887 234.136 L230.366 203.07 C234.28 201.443 238.01 199.403 241.489 196.983 " transform="translate(96.2281, 88.633)"/>
  <path style="fill:#fff;fill-rule:nonzero;stroke:none;" d="M18.591 48.923 L27.847 45.195 C25.474 39.271 22.832 33.459 19.927 27.778 C16.894 20.417 12.931 13.474 8.135 7.12 C5.872 4.278 3.116 1.866 0 0 C6.947 16.013 13.151 32.337 18.591 48.923 " transform="translate(205.358, 271.164)"/>
  <path style="fill:#fff;fill-rule:nonzero;stroke:none;" d="M3.364 15.67 C1.913 12.947 0.784 10.065 0 7.081 C5.502 7.198 11.005 6.919 16.466 6.244 C28.191 4.693 39.838 2.609 51.373 0 L11.605 31.138 C8.732 26.05 5.983 20.893 3.364 15.67 " transform="translate(192.313, 183.556)"/>
</svg>
