<svg viewBox="85.5395 85.536 283.465 283.465" width="40" height="40" xmlns="http://www.w3.org/2000/svg">
  <path style="fill:#111;stroke:none;" d="M43.043 3.78 C45.567 2.886 47.939 1.611 50.078 0 L95.905 0 L96.377 0 L96.377 31.654 L95.905 31.654 L77.48 31.654 L77.48 48.189 L95.905 48.189 L96.377 48.189 L96.377 74.173 L95.905 74.173 L77.48 74.173 L77.48 110.079 L87.873 110.079 L87.873 252.284 L38.74 252.284 L38.74 110.079 L49.133 110.079 L49.133 74.173 L0 74.173 L0 48.189 L49.133 48.189 L49.133 31.654 L0 31.654 L0 11.812 C14.701 11.616 29.26 8.9 43.043 3.78 " transform="translate(163.965, 101.6)"/>
</svg>
