<svg viewBox="85.5395 85.536 283.465 283.465" width="40" height="40" xmlns="http://www.w3.org/2000/svg">
  <path style="fill:#111; fill-rule:nonzero;stroke:none;" d="M28.0455 25.393 C28.8555 24.792 29.4995 23.997 29.9185 23.08 C30.1215 22.618 30.2375 22.122 30.2605 21.618 C30.2135 20.571 30.1375 19.526 30.0325 18.484 C29.5335 15.296 28.5375 12.208 27.0805 9.331 C26.0375 7.367 24.7865 5.522 23.3455 3.828 C22.9895 3.459 22.6205 3.103 22.2395 2.759 C21.6715 2.316 21.0705 1.915 20.4425 1.56 C19.9455 1.359 19.4495 1.155 18.9555 0.949 C17.2105 0.371 15.3915 0.052 13.5545 0 C10.7795 0.064 8.08052 0.915 5.76952 2.453 C3.87152 3.895 2.43952 5.863 1.65052 8.112 C1.17052 9.367 0.78652 10.656 0.50352 11.97 C0.38052 12.57 0.28052 13.175 0.20352 13.784 C0.10752 14.505 0.0415202 15.23 0.00652024 15.957 C-0.0564798 18.377 0.33752 20.788 1.16852 23.063 C2.50352 26.331 4.08252 29.493 5.89352 32.523 C6.79152 34.528 7.94552 36.408 9.32752 38.116 C10.0575 38.904 11.1425 39.259 12.1965 39.053 C13.0745 38.586 13.8925 38.015 14.6335 37.351 C17.3245 34.987 19.9805 32.583 22.6015 30.14 C24.4225 28.58 26.2295 27.002 28.0215 25.407 C28.0285 25.401 28.0375 25.396 28.0455 25.393 " transform="translate(208.646, 115.617)"/>
  <path style="fill:#111; fill-rule:nonzero;stroke:none;" d="M14.507 1.59111 C13.186 1.09211 11.854 0.624113 10.511 0.187113 C8.852 -0.288887 7.066 0.158113 5.828 1.35911 C4.124 3.21811 2.328 4.99011 0.448 6.67011 C0.164 6.97511 0.003 7.37611 0 7.79411 C0.013 8.20511 0.166 8.60011 0.435 8.91311 C1.339 10.1301 2.807 10.7941 4.319 10.6681 C5.444 10.6611 6.569 10.6911 7.693 10.7561 C9.957 10.8971 12.217 11.0921 14.471 11.3411 C17.145 11.7541 19.815 12.1931 22.48 12.6571 C24.699 13.0581 26.885 13.6221 29.022 14.3451 C30.42 14.7221 31.83 15.0591 33.249 15.3531 C34.064 15.5801 34.93 15.5431 35.724 15.2471 C36.26 15.0881 36.731 14.7551 37.062 14.3011 C37.21 14.0591 37.267 13.7711 37.22 13.4901 C37.204 13.4261 37.185 13.3621 37.163 13.3001 C37.022 12.9341 36.823 12.5941 36.577 12.2901 C36.243 11.9231 35.839 11.6301 35.387 11.4251 C33.358 10.6601 31.385 9.75311 29.484 8.71011 C27.33 7.69711 25.197 6.64211 23.085 5.54611 C20.321 4.02911 17.455 2.70811 14.507 1.59111 " transform="translate(200.838, 99.0309)"/>
  <path style="fill:#111; fill-rule:nonzero;stroke:none;" d="M20.7044 145.409 C20.4674 145.081 20.1714 144.802 19.8314 144.583 C16.8874 141.892 13.9614 139.181 11.0524 136.451 C9.16839 134.864 7.91439 132.654 7.51739 130.222 C7.18439 127.288 7.25939 124.322 7.73939 121.408 C8.03839 119.888 8.42339 118.387 8.89139 116.911 L37.2844 25.8946 C37.8164 24.3136 38.4654 22.7726 39.2234 21.2856 C39.9314 20.2096 40.7984 19.2476 41.7924 18.4286 C43.0254 17.5926 43.8754 16.2996 44.1524 14.8346 C44.5934 12.8716 45.2594 10.9646 46.1394 9.1536 C46.9164 7.3076 48.1914 5.7146 49.8234 4.5536 C50.7274 3.8886 51.6724 3.2806 52.6524 2.7346 C52.8064 2.6476 52.9524 2.5486 53.0914 2.4386 C53.1234 2.4106 53.1534 2.3796 53.1804 2.3456 C53.2394 2.2666 53.2864 2.1806 53.3214 2.0896 C53.3304 2.0656 53.3364 2.0416 53.3414 2.0166 C53.3624 1.8686 53.3444 1.7196 53.2884 1.5816 C53.1894 1.3916 53.0194 1.2486 52.8164 1.1836 C51.9074 0.944597 51.0034 0.690597 50.1034 0.422597 C49.0604 0.130597 47.9824 -0.0104029 46.9004 0.000597087 C45.1624 -0.00640291 43.4274 0.133597 41.7124 0.420597 C40.9614 0.572597 40.2334 0.823597 39.5484 1.1686 C39.0484 1.4416 38.5814 1.7706 38.1544 2.1486 C36.3244 3.6666 34.8874 5.6036 33.9654 7.7956 C33.6944 8.5976 33.4474 9.4076 33.2254 10.2256 C32.7414 12.1006 32.2904 13.9846 31.8734 15.8766 C31.5924 17.4716 31.6214 19.1066 31.9594 20.6906 C32.0354 20.8916 32.1004 21.0976 32.1544 21.3066 C32.2834 22.2826 32.1864 23.2736 31.8724 24.2056 L3.60939 114.806 C3.11439 116.459 2.63639 118.117 2.17739 119.78 C1.85139 120.969 1.57239 122.17 1.34139 123.381 C0.903392 125.476 0.543392 127.587 0.259392 129.709 C-0.0836083 131.817 -0.0866083 133.967 0.251392 136.076 C0.598392 137.992 1.20239 139.851 2.04839 141.605 C2.86439 143.218 3.93139 144.692 5.21039 145.971 C6.64439 147.616 8.24339 149.11 9.98239 150.431 C11.1364 151.103 12.3984 151.572 13.7134 151.816 C14.6834 152.003 15.6854 151.945 16.6284 151.648 C17.2854 151.392 17.9144 151.065 18.5014 150.673 C19.4954 150.068 20.3044 149.202 20.8374 148.168 C21.2504 147.282 21.2004 146.25 20.7044 145.409 " transform="translate(159.286, 113.871)"/>
  <path style="fill:#111; fill-rule:nonzero;stroke:none;" d="M103.379 203.029 C103.908 198.837 104.338 194.63 104.667 190.418 C104.886 187.387 105.132 184.36 105.409 181.335 C106.348 165.441 106.711 149.517 106.494 133.597 C106.519 123.153 105.261 112.746 102.748 102.609 C102.31 101.1 101.826 99.6048 101.297 98.1258 C99.6973 92.9828 98.0393 87.8588 96.3203 82.7538 C94.3453 77.4928 91.9313 72.4068 89.1043 67.5498 C87.6913 64.8468 86.2563 62.1558 84.7953 59.4778 C84.4893 58.8418 84.2343 58.1828 84.0333 57.5058 C83.5553 56.0518 83.2763 54.5388 83.2083 53.0098 C83.1683 52.1888 83.2123 51.3678 83.3393 50.5558 C83.6573 48.8828 83.9513 47.2058 84.2233 45.5248 L85.4603 37.8368 C85.5913 37.0198 85.6723 36.1958 85.7013 35.3688 C85.7283 34.6188 85.7523 33.8688 85.7683 33.1188 C85.7443 32.6908 85.7313 32.2618 85.7243 31.8328 C85.6893 30.8318 84.9863 29.9798 84.0113 29.7528 C83.5523 29.6728 83.0783 29.7428 82.6623 29.9538 C82.2233 30.2878 81.8453 30.6928 81.5413 31.1538 L63.0393 55.8328 C63.0003 55.8858 62.9613 55.9388 62.9233 55.9928 C62.8183 56.1448 62.6843 56.2758 62.5313 56.3778 C62.5193 56.3858 62.5073 56.3928 62.4963 56.3998 C62.2073 56.5438 61.8683 56.5478 61.5763 56.4088 C61.5183 56.3778 61.4643 56.3358 61.4223 56.2868 C61.2483 56.0838 61.1583 55.8218 61.1713 55.5548 C61.2073 55.3078 61.3053 55.0728 61.4553 54.8738 L82.4863 25.2408 C84.6763 22.6288 85.9503 19.3718 86.1133 15.9678 C85.9433 14.5728 85.5333 13.2178 84.9003 11.9618 C83.5043 9.31883 81.1093 7.34283 78.2503 6.47383 C76.7023 5.99483 75.1523 5.52583 73.5983 5.06683 C70.3333 4.23683 67.1193 3.21483 63.9743 2.00483 C61.8183 1.21683 59.6133 0.563835 57.3753 0.0498348 C57.1973 -0.0111652 57.0063 -0.0161652 56.8243 0.0348348 C56.6173 0.0908348 56.4933 0.302835 56.5473 0.510835 C56.5783 0.695835 56.6393 0.873835 56.7313 1.03783 C56.8183 1.23483 56.9063 1.42983 56.9963 1.62583 C57.1443 1.97383 57.2893 2.32283 57.4303 2.67383 C58.7853 5.50283 59.9733 8.40983 60.9843 11.3798 C61.4083 12.5898 61.7053 13.8408 61.8713 15.1138 C61.9473 15.6818 62.3103 16.1718 62.8313 16.4118 C62.9083 16.4468 62.9883 16.4778 63.0683 16.5058 C63.0703 16.5068 63.0723 16.5068 63.0753 16.5068 C63.5783 16.7228 64.0823 16.9378 64.5883 17.1508 C64.8243 17.2368 65.0583 17.3268 65.2913 17.4228 C65.5883 17.5138 65.8283 17.7328 65.9463 18.0198 C66.0643 18.3058 66.0503 18.6298 65.9053 18.9048 C65.8753 18.9658 65.8413 19.0248 65.8053 19.0818 C65.2443 20.1188 64.6073 21.1138 63.9003 22.0568 C62.6323 23.7348 61.1933 25.2758 59.6063 26.6548 C56.9263 29.2658 54.1543 31.7848 51.3013 34.2058 C49.6643 35.4548 48.0793 36.7688 46.5463 38.1438 C43.4703 40.7458 40.6263 43.6108 38.0453 46.7058 C37.0103 47.8118 36.1383 49.0588 35.4553 50.4108 C34.5893 52.1118 34.0903 53.9758 33.9933 55.8818 C34.0063 56.8668 34.1123 57.8488 34.3073 58.8148 C34.6113 60.0928 35.0033 61.3478 35.4823 62.5708 C35.9773 63.7288 36.5193 64.8648 37.1093 65.9778 C38.4603 68.4188 39.9163 70.7998 41.4723 73.1168 C47.6943 81.4658 53.7973 89.9038 59.7773 98.4278 C60.2443 99.0418 60.5953 99.7338 60.8143 100.472 C61.0643 101.489 61.0133 102.556 60.6683 103.544 C60.5433 103.87 60.3863 104.182 60.1973 104.476 C59.5413 105.453 58.9163 106.45 58.3243 107.468 C57.7113 108.466 57.2323 109.542 56.9003 110.667 C56.7423 111.191 56.6133 111.722 56.5143 112.26 C56.1723 113.912 56.0553 115.603 56.1683 117.286 C56.2143 122.204 56.4193 127.118 56.7793 132.023 C57.3903 141.643 58.0473 151.259 58.7483 160.873 C58.8893 162.605 58.7313 164.348 58.2853 166.027 C57.9223 167.841 57.0573 169.517 55.7893 170.865 C54.9843 171.811 54.1343 172.718 53.2403 173.581 C51.9603 174.937 50.6223 176.237 49.2303 177.477 C44.5793 181.46 40.0813 185.62 35.7453 189.944 C32.4383 193.029 29.0543 196.029 25.5953 198.941 C21.5263 202.544 17.3023 205.968 12.9353 209.202 C9.59131 211.498 6.26631 213.82 2.96031 216.169 C2.50131 216.462 2.05131 216.768 1.60931 217.087 C1.45131 217.206 1.29931 217.332 1.15331 217.466 C1.05931 217.558 0.970306 217.655 0.884306 217.755 C0.429306 218.318 0.127306 218.987 0.00530586 219.699 C-0.0236941 220.488 0.0663059 221.276 0.272306 222.038 C1.14331 225.396 2.38431 228.649 3.97231 231.734 C5.30431 234.192 6.60131 236.668 7.86431 239.162 C8.64131 240.519 9.60531 241.761 10.7273 242.851 C11.6053 243.751 12.7703 244.316 14.0213 244.448 C15.1633 244.569 16.3183 244.504 17.4393 244.256 C18.1463 244.087 18.6553 243.469 18.6863 242.744 C18.6863 242.698 18.6853 242.653 18.6803 242.607 C18.4093 241.079 18.1583 239.548 17.9263 238.014 C17.4883 235.22 17.4413 232.38 17.7863 229.573 C17.9113 228.003 18.1573 226.444 18.5193 224.912 C18.9623 224.246 19.7733 223.928 20.5503 224.114 C24.6983 226.261 28.8833 228.334 33.1063 230.329 C34.3273 230.978 35.8353 230.691 36.7323 229.639 C38.1613 228.197 39.5183 226.685 40.7983 225.109 C48.3093 216.685 55.6443 208.104 62.7963 199.373 C66.8123 194.419 70.7163 189.374 74.5073 184.244 C75.7363 182.843 76.7363 181.259 77.4723 179.548 C78.5183 177.346 79.2383 175.003 79.6093 172.594 C80.3993 169.335 81.1513 166.067 81.8653 162.79 C82.2103 161.05 82.5153 159.303 82.7803 157.55 C82.9203 156.788 83.2803 156.085 83.8183 155.527 C83.9353 155.408 84.1033 155.354 84.2683 155.384 C84.3393 155.402 84.4043 155.443 84.4513 155.501 C84.5793 155.652 84.6503 155.843 84.6543 156.041 C84.8733 158.686 84.9483 161.341 84.8763 163.995 C84.7813 168.875 84.2923 173.739 83.4123 178.541 C82.0563 185.009 80.8483 191.509 79.7893 198.034 C79.1133 203.988 78.0473 209.891 76.5983 215.706 C75.4753 221.001 74.0983 226.24 72.4683 231.403 C71.3063 235.087 70.1293 238.765 68.9353 242.438 C68.8573 242.687 68.8073 242.944 68.7853 243.204 C68.8023 243.904 69.0433 244.581 69.4733 245.134 C69.5473 245.214 69.6363 245.277 69.7363 245.319 C71.0843 245.794 72.4883 246.09 73.9133 246.202 C76.0483 246.16 78.1543 245.687 80.1033 244.81 C80.1493 244.79 80.1953 244.767 80.2393 244.744 C85.4023 241.892 90.6173 239.133 95.8793 236.468 C97.5543 235.664 98.7273 234.087 99.0143 232.251 C99.0363 231.923 99.0613 231.597 99.0893 231.27 C100.595 221.869 102.025 212.455 103.379 203.029 " transform="translate(179.257, 116.551)"/>
</svg>
