<svg viewBox="85.5395 85.536 283.465 283.465" width="40" height="40" xmlns="http://www.w3.org/2000/svg">
  <path style="fill:#111; fill-rule:nonzero;stroke:none;" d="M20.776 7.886 C24.159 6.447 27.446 4.787 30.613 2.918 C33.308 2.99 36.004 2.864 38.681 2.542 C44.976 1.86 51.251 1.012 57.501 0 C50.95 4.668 44.654 9.683 38.64 15.026 C33.511 19.487 28.654 24.251 24.096 29.294 C22.982 29.082 21.895 28.743 20.857 28.285 C16.825 26.506 12.935 24.426 9.218 22.061 C5.81 20.11 2.704 17.672 0 14.825 C2.021 14.106 4.07 13.471 6.142 12.92 C11.134 11.594 16.025 9.913 20.776 7.886 " transform="translate(250.387, 308.142)"/>
  <path style="fill:#111; fill-rule:nonzero;stroke:none;" d="M107.499 75.221 C88.696 86.131 67.983 93.353 46.472 96.496 L31.568 97.863 L16.238 98.654 L0 98.546 C4.214 95.956 8.074 92.83 11.482 89.245 L14.849 85.287 C17.607 81.911 19.794 78.106 21.323 74.023 C22.125 71.563 22.751 69.048 23.195 66.499 L24.185 60.515 L40.414 58.704 L52.99 57.094 L61.518 55.756 C66.386 54.846 71.186 53.612 75.889 52.064 L91.622 46.432 L103.757 41.185 L115.93 35.047 L127.54 28.758 L136.567 22.467 L148.17 11.762 L156.762 0 L156.177 4.432 C153.815 19.078 148.448 33.076 140.413 45.547 C135.164 53.912 128.303 61.151 120.231 66.839 L116.05 69.764 L107.499 75.221 " transform="translate(182.239, 224.865)"/>
  <path style="fill:#111; fill-rule:nonzero;stroke:none;" d="M80.8941 35.0228 C77.4101 32.3878 73.6301 30.1658 69.6311 28.4048 L2.86108 0.628768 L1.80508 0.160768 C1.35108 -0.123232 0.756077 -0.0222319 0.419077 0.394768 C0.147077 0.667768 -0.00392251 1.03877 7.74926e-05 1.42577 C0.00407749 1.81077 0.165077 2.17877 0.443077 2.44577 L19.0491 26.4958 L23.0411 32.1478 C23.9591 33.8728 24.4921 35.7768 24.6031 37.7268 C24.6541 39.7068 24.3581 41.6808 23.7281 43.5578 L21.6451 47.6858 L19.7671 50.4318 C23.4521 49.7948 27.1401 49.1848 30.8341 48.6028 C36.3191 47.5188 41.8821 46.8658 47.4701 46.6488 C51.7911 46.4028 56.1191 46.2838 60.4471 46.2928 C64.1721 46.3498 67.8921 46.5918 71.5941 47.0168 C73.9101 47.2858 76.2031 47.7178 78.4571 48.3108 C80.1891 48.9148 81.8371 49.7368 83.3631 50.7568 C85.7281 52.3588 87.5781 54.6148 88.6831 57.2488 C89.7301 59.3288 90.3001 61.6148 90.3511 63.9418 C91.2001 61.6118 91.5721 59.1348 91.4451 56.6578 C91.3351 53.8888 90.9121 51.1408 90.1801 48.4678 C89.1071 45.5468 87.6831 42.7678 85.9371 40.1928 C84.4601 38.4208 82.8561 36.7598 81.1361 35.2228 C81.0581 35.1528 80.9781 35.0868 80.8941 35.0228 " transform="translate(239.041, 124.021)"/>
  <path style="fill:#111; fill-rule:nonzero;stroke:none;" d="M216.266 129.122 C220.738 123.698 224.025 117.397 225.913 110.625 C226.745 107.44 227.37 104.204 227.787 100.939 C228.14 98.191 228.079 95.405 227.608 92.673 C227.145 89.753 226.356 86.894 225.254 84.15 C224.538 82.364 223.656 80.649 222.62 79.027 C222.659 80.245 222.703 81.463 222.751 82.68 C222.616 85.778 222.204 88.858 221.524 91.884 C220.788 94.614 219.7 97.237 218.287 99.686 C217.286 101.61 216.043 103.399 214.588 105.007 C212.644 107.286 210.437 109.328 208.015 111.09 C205.716 112.881 203.326 114.554 200.857 116.103 C198.185 117.779 195.368 119.213 192.441 120.388 C190.09 121.468 187.643 122.324 185.132 122.947 C182.118 123.859 179.021 124.469 175.886 124.768 C173.616 125.03 171.329 125.13 169.046 125.068 C168.473 125.009 168.001 124.591 167.874 124.03 C167.829 123.592 167.935 123.152 168.175 122.783 C168.658 122.157 169.143 121.532 169.631 120.91 L181.921 106.048 L136.895 109.714 C133.294 110.133 129.651 110.045 126.074 109.454 C123.177 109 120.348 108.184 117.655 107.024 C114.045 105.297 110.467 103.502 106.923 101.643 L93.301 139.189 C88.894 140.281 84.524 141.52 80.199 142.904 C76.834 144.089 73.469 145.271 70.101 146.449 C66.662 147.676 63.309 149.128 60.063 150.798 C53.502 153.958 47.157 157.551 41.071 161.55 C37.706 163.833 34.387 166.181 31.114 168.595 C28.58 170.598 26.06 172.618 23.553 174.653 L72.528 1.137 L68.248 0 L17.458 180.678 C13.847 184.158 10.633 188.029 7.877 192.22 C9.132 192.529 10.383 192.851 11.632 193.184 C12.22 193.342 12.804 193.51 13.386 193.689 C15.301 194.28 17.215 194.876 19.128 195.476 C19.711 195.659 20.293 195.846 20.873 196.038 C22.326 196.518 23.762 197.05 25.178 197.632 C28.48 198.989 31.762 200.397 35.021 201.854 C36.388 202.466 37.731 203.128 39.049 203.84 C39.678 204.179 40.28 204.568 40.848 205.002 C40.935 205.068 41.009 205.148 41.068 205.241 C41.169 205.37 41.258 205.508 41.334 205.653 C41.471 205.942 41.479 206.276 41.356 206.571 C41.233 206.867 40.991 207.096 40.689 207.203 C38.407 207.699 36.102 208.082 33.782 208.349 C30.337 208.915 26.911 209.585 23.507 210.358 C20.184 211.173 16.898 212.134 13.66 213.24 C11.315 213.973 8.991 214.769 6.688 215.628 C4.685 216.284 2.695 216.974 0.717 217.701 C0.379 217.747 0.098 217.985 0 218.311 C0.012 218.493 0.105 218.659 0.253 218.764 C0.401 218.871 0.589 218.905 0.764 218.858 L50.607 222.449 C52.074 222.558 53.547 222.523 55.007 222.344 C58.106 222.037 61.136 221.237 63.982 219.974 C67.563 218.301 70.868 216.093 73.784 213.426 C76.44 210.961 78.821 208.216 80.884 205.238 C82.636 202.486 84.061 199.54 85.132 196.458 C86.215 193.539 86.985 190.514 87.431 187.433 C87.762 184.963 87.934 182.474 87.947 179.982 C99.965 178.938 111.95 177.56 123.892 175.851 C142.642 172.597 160.753 166.378 177.544 157.424 C182.107 155.115 186.599 152.67 191.014 150.09 C194.491 148.266 197.818 146.165 200.958 143.808 C203.494 141.723 205.987 139.586 208.433 137.397 C211.221 134.811 213.837 132.047 216.266 129.122 " transform="translate(113.092, 100.09)"/>
  <path style="fill:#fff;fill-rule:nonzero;stroke:none;" d="M12.894 6.447 C12.894 2.886 10.008 0 6.447 0 C2.886 0 0 2.886 0 6.447 C0 10.007 2.886 12.894 6.447 12.894 C10.008 12.894 12.894 10.007 12.894 6.447 " transform="translate(144.291, 273.428)"/>
</svg>
