<svg viewBox="85.5395 85.536 283.465 283.465" width="40" height="40" xmlns="http://www.w3.org/2000/svg">
  <path style="fill:#111; fill-rule:nonzero;stroke:none;" d="M201.732 106.772 L176.693 106.772 L176.693 148.346 L201.732 148.346 C231.216 148.346 255.117 172.248 255.117 201.732 C255.117 231.217 231.216 255.117 201.732 255.117 C172.248 255.117 148.346 231.217 148.346 201.732 L148.346 176.693 L106.771 176.693 L106.771 201.732 C106.771 231.217 82.8691 255.117 53.3851 255.117 C23.9011 255.117 0 231.217 0 201.732 C0 172.248 23.9011 148.346 53.3851 148.346 L78.4251 148.346 L78.4251 106.772 L53.3851 106.772 C23.9011 106.772 0 82.87 0 53.385 C0 23.902 23.9011 0 53.3851 0 C82.8691 0 106.771 23.902 106.771 53.385 L106.771 78.425 L148.346 78.425 L148.346 53.385 C148.346 23.902 172.248 0 201.732 0 C231.216 0 255.117 23.902 255.117 53.385 C255.117 82.87 231.216 106.772 201.732 106.772 " transform="translate(99.7129, 99.71)"/>
  <path style="fill:#fff;fill-rule:nonzero;stroke:none;" d="M0 50.079 L0 25.039 C0 11.211 11.211 0 25.039 0 C38.868 0 50.078 11.211 50.078 25.039 C50.078 38.869 38.868 50.079 25.039 50.079 L0 50.079 " transform="translate(276.406, 128.056)"/>
  <path style="fill:#fff;fill-rule:nonzero;stroke:none;" d="M0 25.039 C0 38.867 11.211 50.078 25.039 50.078 C38.868 50.078 50.078 38.867 50.078 25.039 C50.078 11.211 38.868 0 25.039 0 L0 0 L0 25.039 " transform="translate(276.406, 276.403)"/>
  <path style="fill:#fff;fill-rule:nonzero;stroke:none;" d="M50.0798 25.039 L50.0798 0 L25.0398 0 C14.9128 0 5.78283 6.1 1.90683 15.457 C-1.96917 24.813 0.173826 35.584 7.33483 42.744 C14.4958 49.907 25.2658 52.049 34.6228 48.172 C43.9788 44.297 50.0798 35.166 50.0798 25.039 " transform="translate(128.058, 276.403)"/>
  <path style="fill:#fff;fill-rule:nonzero;stroke:none;" d="M50.079 25.039 C50.079 11.211 38.868 0 25.039 0 C11.211 0 0 11.211 0 25.039 C0 38.869 11.211 50.079 25.039 50.079 L50.079 50.079 L50.079 25.039 " transform="translate(128.059, 128.056)"/>
  <path style="fill:#fff;fill-rule:nonzero;stroke:none;" d="M0 41.574 L0 0 L41.575 0 L41.575 41.574 L0 41.574 " transform="translate(206.484, 206.482)"/>
</svg>
