<svg viewBox="85.5395 85.536 283.465 283.465" width="40" height="40" xmlns="http://www.w3.org/2000/svg">
  <path style="fill:#111; fill-rule:nonzero;stroke:none;" d="M0 0 L33.515 0 C42.983 0 51.605 5.45 55.667 14.002 C59.729 22.553 58.505 32.68 52.524 40.018 C60.404 47.239 63.043 58.556 59.169 68.517 C55.295 78.478 45.704 85.04 35.016 85.04 L0 85.04 L0 35.016 L0 0 " transform="translate(111.224, 111.048)"/>
  <path style="fill:#111; fill-rule:nonzero;stroke:none;" d="M72.2574 85.4269 L56.8744 65.4319 C60.4194 57.7869 63.2514 49.8339 65.3394 41.6719 L51.2474 36.4509 C49.9794 41.6839 48.3684 46.8259 46.4254 51.8469 L36.2824 38.6629 C38.5894 36.6589 40.7574 34.4999 42.7724 32.2019 C48.9264 23.8839 48.4114 12.3899 41.5344 4.65591 C37.8444 1.53391 33.1354 -0.121094 28.3034 0.00690644 C20.5244 -0.0370936 13.4794 4.59191 10.4334 11.7489 C9.28837 15.3419 8.89937 19.1319 9.28737 22.8819 C10.4354 27.2939 12.2984 31.4869 14.8014 35.2959 L14.7414 35.3339 C2.48837 42.3579 -3.01463 57.1199 1.64737 70.4519 C1.68337 70.5459 1.72137 70.6399 1.76337 70.7319 C5.11737 78.8369 12.5124 84.5609 21.2024 85.7749 C30.7024 86.8179 40.2164 83.9359 47.5404 77.7959 L53.4114 85.4269 L72.2574 85.4269 " transform="translate(190.741, 110.661)"/>
  <path style="fill:#111; fill-rule:nonzero;stroke:none;" d="M0 0 L33.516 0 C42.983 0 51.606 5.45 55.668 14.002 C59.729 22.553 58.506 32.68 52.524 40.018 C60.405 47.239 63.043 58.556 59.168 68.517 C55.295 78.478 45.704 85.04 35.016 85.04 L0 85.04 L0 35.016 L0 0 " transform="translate(285.792, 111.048)"/>
  <path style="fill:#fff;fill-rule:nonzero;stroke:none;" d="M0 18.007 L18.009 18.007 C22.982 18.007 27.013 13.976 27.013 9.004 C27.013 4.031 22.982 0 18.009 0 L0 0 L0 18.007 " transform="translate(126.73, 126.556)"/>
  <path style="fill:#fff;fill-rule:nonzero;stroke:none;" d="M19.51 20.509 C24.466 20.504 28.731 17.003 29.704 12.143 C30.675 7.282 28.084 2.411 23.511 0.5 C22.034 0.168 20.524 0 19.009 0 L0 0 L0 20.509 L19.51 20.509 " transform="translate(126.73, 160.071)"/>
  <path style="fill:#fff;fill-rule:nonzero;stroke:none;" d="M10.6218 23.875 C15.3758 23.748 19.9308 21.941 23.4798 18.774 L9.03777 0 L7.47377 0.992 C1.42677 4.307 -1.41923 11.445 0.692766 18.01 C2.34877 21.825 6.23177 24.18 10.3798 23.887 L10.6218 23.875 " transform="translate(205.68, 157.826)"/>
  <path style="fill:#fff;fill-rule:nonzero;stroke:none;" d="M7.18656 13.7486 C9.05456 12.1806 10.5976 10.2616 11.7276 8.09965 C12.0776 6.49565 11.9756 4.82565 11.4346 3.27565 C10.5186 1.88565 9.16556 0.839648 7.58956 0.304648 C5.69656 -0.355352 3.59556 0.0746476 2.11256 1.42365 C0.995559 2.30265 0.284559 3.59865 0.147559 5.01365 C-0.195441 6.70665 0.0635585 8.46765 0.882559 9.99065 C1.87256 11.9966 3.21456 13.8106 4.83956 15.3496 C5.62656 14.8226 6.40956 14.2896 7.18656 13.7486 " transform="translate(212.982, 123.251)"/>
  <path style="fill:#fff;fill-rule:nonzero;stroke:none;" d="M0 18.007 L18.008 18.007 C22.981 18.007 27.012 13.976 27.012 9.004 C27.012 4.031 22.981 0 18.008 0 L0 0 L0 18.007 " transform="translate(301.3, 126.556)"/>
  <path style="fill:#fff;fill-rule:nonzero;stroke:none;" d="M19.508 20.509 C24.465 20.504 28.731 17.003 29.701 12.143 C30.674 7.282 28.084 2.411 23.51 0.5 C22.033 0.168 20.524 0 19.008 0 L0 0 L0 20.509 L19.508 20.509 " transform="translate(301.3, 160.071)"/>
  <path style="fill:#111; fill-rule:nonzero;stroke:none;" d="M0 35.0821 L0 127.809 L19.216 127.809 L19.216 108.77 L230.234 108.77 L230.234 127.809 L249.449 127.809 L249.449 9.60811 C249.449 4.31911 245.173 0.0241096 239.884 0.000109576 C234.595 -0.0248904 230.281 4.23111 230.234 9.52011 L230.234 46.8931 C226.71 66.5371 210.525 81.4231 190.656 83.2961 L19.216 83.2961 L19.216 35.0821 C19.216 29.7751 14.914 25.4741 9.608 25.4741 C4.302 25.4741 0 29.7751 0 35.0821 " transform="translate(102.547, 224.184)"/>
  <path style="fill:#111; fill-rule:nonzero;stroke:none;" d="M40.5455 3.22672 C35.9835 -2.54928 23.5855 -0.361277 12.8565 8.11472 C2.12654 16.5907 -2.87346 28.1447 1.68854 33.9207 C6.25154 39.6967 18.6495 37.5077 29.3795 29.0327 C40.1085 20.5567 45.1085 9.00372 40.5455 3.22672 " transform="translate(281.289, 259.721)"/>
  <path style="fill:#111; fill-rule:nonzero;stroke:none;" d="M134.886 32.2165 C137.513 32.3025 140.04 31.2015 141.767 29.2195 C143.493 27.2365 144.235 24.5825 143.788 21.9915 C142.911 16.9075 139.579 12.5865 134.886 10.4445 C94.0535 -3.4815 49.7575 -3.4815 8.92651 10.4445 C3.90951 12.1565 0.403513 16.7035 0.0245132 21.9915 C-0.157487 24.5295 0.679513 27.0355 2.35051 28.9545 C4.02151 30.8735 6.38751 32.0475 8.92651 32.2165 L134.886 32.2165 " transform="translate(132.227, 265.832)"/>
</svg>
