<svg viewBox="85.5395 85.536 283.465 283.465" width="40" height="40" xmlns="http://www.w3.org/2000/svg">
  <path style="fill:#111; fill-rule:nonzero;stroke:none;" d="M18.898 15.118 L18.898 24.261 L121.182 63.012 L193.797 63.012 C205.614 63.012 216.751 68.539 223.898 77.951 C226.966 81.992 232.572 83.1 236.947 80.53 C241.323 77.959 243.084 72.523 241.048 67.875 C240.236 66.019 240.475 63.871 241.674 62.24 C242.875 60.609 244.855 59.741 246.867 59.965 C248.88 60.189 250.621 61.469 251.434 63.324 C254.698 70.776 253.446 79.435 248.203 85.656 C242.96 91.876 234.638 94.577 226.741 92.622 L213.43 124.205 C217.186 126.378 220.822 128.75 224.324 131.311 C228.24 134.176 231.883 137.398 235.205 140.935 C238.637 144.588 241.722 148.551 244.421 152.775 C250.072 161.617 253.125 171.87 253.229 182.363 C253.125 192.856 250.072 203.108 244.421 211.95 C241.722 216.174 238.637 220.137 235.205 223.791 C231.883 227.327 228.24 230.549 224.324 233.414 C220.669 236.087 216.868 238.554 212.939 240.803 C209.202 242.942 205.329 244.833 201.345 246.463 C197.651 247.973 193.901 249.348 190.105 250.584 C186.462 251.769 182.759 252.761 179.012 253.556 C175.481 254.306 171.929 254.958 168.362 255.51 C164.85 256.053 161.313 256.432 157.765 256.644 C154.315 256.85 150.859 256.971 147.403 257.009 C143.946 256.971 140.49 256.85 137.039 256.644 C133.491 256.432 129.955 256.053 126.443 255.51 C122.875 254.958 119.324 254.306 115.793 253.556 C112.045 252.761 108.343 251.769 104.699 250.584 C100.904 249.348 97.155 247.973 93.46 246.463 C89.475 244.833 85.602 242.942 81.865 240.803 C77.936 238.554 74.135 236.087 70.48 233.414 C66.564 230.549 62.921 227.327 59.599 223.791 C56.168 220.137 53.082 216.174 50.383 211.95 C44.732 203.108 41.679 192.856 41.575 182.363 C41.679 171.87 44.732 161.617 50.383 152.775 C53.082 148.551 56.168 144.588 59.599 140.935 C62.921 137.398 66.564 134.176 70.48 131.311 C73.982 128.75 77.619 126.378 81.374 124.205 L68.327 93.248 L18.898 93.248 L18.898 238.11 C18.898 242.12 17.305 245.966 14.47 248.801 C11.635 251.635 7.789 253.228 3.78 253.228 L0 253.228 L0 0 L3.78 0 C7.789 0 11.635 1.593 14.47 4.428 C17.305 7.263 18.898 11.109 18.898 15.118 " transform="translate(100.657, 100.654)"/>
  <path style="fill:#fff;fill-rule:nonzero;stroke:none;" d="M28.9022 5.55865 C25.7712 1.96765 21.2172 -0.0663478 16.4522 0.00165217 C12.2212 -0.0173478 8.18123 1.76065 5.33623 4.89165 C1.87123 8.90765 -0.0237748 14.0407 0.000225203 19.3437 C-0.0237748 24.6467 1.87123 29.7797 5.33623 33.7947 C8.18123 36.9277 12.2212 38.7047 16.4522 38.6857 C24.5562 39.0577 31.5142 32.9807 32.2372 24.9017 L32.2372 17.7877 L16.4522 17.7877 L16.4522 24.5907 L25.4302 24.5907 C24.8792 28.9767 21.0042 32.1747 16.5932 31.8807 C14.2592 31.9397 12.0132 30.9927 10.4272 29.2807 C8.06523 26.5107 6.77923 22.9837 6.80323 19.3437 C6.77923 15.7037 8.06523 12.1767 10.4272 9.40665 C11.9872 7.72165 14.1882 6.77665 16.4842 6.80465 C19.4362 6.74265 22.2452 8.06965 24.0722 10.3887 L28.9022 5.55865 " transform="translate(158.335, 243.359)"/>
  <path style="fill:#fff;fill-rule:nonzero;stroke:none;" d="M9.8915 10.9004 C9.2265 11.0194 8.5725 11.1954 7.9375 11.4274 C5.0095 12.7004 2.6395 14.9904 1.2675 17.8754 C-0.4225 22.3914 -0.4225 27.3654 1.2675 31.8814 C2.7675 35.1784 5.5965 37.6834 9.0495 38.7734 C10.8035 39.1934 12.6315 39.1934 14.3855 38.7734 C16.0335 38.4344 17.5835 37.7274 18.9205 36.7054 L18.9205 38.5514 L25.7235 38.5514 L25.7235 10.9604 L18.9205 10.9604 L18.9205 13.0564 C17.8585 12.1884 16.6265 11.5524 15.3045 11.1894 C17.7595 10.0684 19.1315 7.41742 18.6295 4.76742 C18.1265 2.11642 15.8785 0.15142 13.1845 0.0084198 C10.4905 -0.13558 8.0465 1.58042 7.2655 4.16342 C6.4855 6.74542 7.5695 9.52742 9.8915 10.9004 " transform="translate(197.486, 243.057)"/>
  <path style="fill:#111; fill-rule:nonzero;stroke:none;" d="M4.914 2.456 C4.914 1.1 3.814 0 2.457 0 C1.1 0 0 1.1 0 2.456 C0 3.814 1.1 4.914 2.457 4.914 C3.814 4.914 4.914 3.814 4.914 2.456 " transform="translate(207.902, 246.458)"/>
  <path style="fill:#111; fill-rule:nonzero;stroke:none;" d="M11.849 10.8857 C11.222 13.1487 9.402 14.8867 7.111 15.4057 C5.685 15.7187 4.194 15.3867 3.035 14.4997 C1.443 13.2067 0.4 11.3597 0.111 9.32868 C-0.037 8.28868 -0.037 7.23168 0.111 6.19168 C0.4 4.16068 1.443 2.31368 3.035 1.02068 C4.194 0.134679 5.685 -0.197321 7.111 0.114679 C9.402 0.634679 11.222 2.37168 11.849 4.63568 L11.849 10.8857 " transform="translate(204.557, 260.063)"/>
  <path style="fill:#fff;fill-rule:nonzero;stroke:none;" d="M0 27.8156 L0 0.224615 L6.803 0.224615 L6.803 2.30461 C9.926 0.302615 13.696 -0.432385 17.342 0.246615 L17.342 7.26561 C16.568 6.94461 15.733 6.79461 14.896 6.82861 C13.464 6.79061 12.055 7.18261 10.848 7.95361 C8.645 9.25461 7.157 11.4906 6.803 14.0256 L6.803 27.8156 L0 27.8156 " transform="translate(232.28, 253.792)"/>
  <path style="fill:#fff;fill-rule:nonzero;stroke:none;" d="M7.9375 10.671 C5.0085 11.944 2.6395 14.234 1.2675 17.119 C-0.4225 21.635 -0.4225 26.609 1.2675 31.125 C2.7675 34.422 5.5955 36.927 9.0485 38.017 C10.8025 38.437 12.6305 38.437 14.3845 38.017 C16.0335 37.678 17.5835 36.971 18.9205 35.949 L18.9205 37.795 L25.7235 37.795 L25.7235 0 L18.9205 0 L18.9205 12.3 C17.6125 11.23 16.0495 10.517 14.3845 10.226 C12.2375 9.763 10.0025 9.917 7.9375 10.671 " transform="translate(254.935, 243.813)"/>
  <path style="fill:#111; fill-rule:nonzero;stroke:none;" d="M11.849 10.8857 C11.223 13.1487 9.402 14.8867 7.11 15.4057 C5.684 15.7187 4.194 15.3867 3.034 14.4997 C1.443 13.2067 0.399 11.3597 0.111 9.32868 C-0.037 8.28868 -0.037 7.23168 0.111 6.19168 C0.399 4.16068 1.443 2.31368 3.034 1.02068 C4.194 0.134679 5.684 -0.197321 7.11 0.114679 C9.402 0.634679 11.223 2.37168 11.849 4.63568 L11.849 10.8857 " transform="translate(262.006, 260.063)"/>
  <path style="fill:#fff;fill-rule:nonzero;stroke:none;" d="M3.723 18.7679 C5.66 20.0759 7.875 20.9159 10.191 21.2219 C11.682 21.4289 13.196 21.3539 14.657 20.9979 C15.207 20.8689 15.691 20.5469 16.022 20.0889 C16.341 19.6529 16.422 19.0879 16.238 18.5799 C16.053 18.0719 15.627 17.6899 15.102 17.5619 L5.766 15.3399 C2.743 14.3989 0.633 11.6679 0.484 8.50589 C0.337 5.34389 2.184 2.42789 5.105 1.20889 C6.662 0.585887 8.308 0.211887 9.981 0.100887 C14.705 -0.377113 19.445 0.853887 23.339 3.57189 L19.514 9.19789 C16.744 7.42989 13.471 6.61789 10.195 6.88989 C9.5 6.91089 8.814 7.06289 8.175 7.33989 C7.695 7.60889 7.419 8.13589 7.468 8.68389 C7.517 9.23089 7.883 9.69889 8.402 9.87989 C8.623 9.96489 8.847 10.0399 9.074 10.1039 L17.745 12.1039 C20.393 12.7929 22.484 14.8199 23.253 17.4449 C24.023 20.0689 23.357 22.9049 21.5 24.9139 C19.83 26.5589 17.641 27.5739 15.307 27.7879 C12.875 28.0969 10.414 28.0969 7.982 27.7889 C5.074 27.4029 2.32 26.2559 0 24.4619 L3.723 18.7679 " transform="translate(288.415, 253.768)"/>
  <path style="fill:#fff;fill-rule:nonzero;stroke:none;" d="M17.786 10.672 C20.714 11.946 23.083 14.236 24.455 17.119 C26.146 21.635 26.146 26.61 24.455 31.125 C22.956 34.422 20.127 36.927 16.674 38.018 C14.92 38.438 13.092 38.438 11.338 38.018 C9.69 37.678 8.14 36.971 6.803 35.95 L6.803 37.795 L0 37.795 L0 0 L6.803 0 L6.803 12.3 C8.111 11.231 9.673 10.517 11.338 10.227 C13.486 9.763 15.722 9.917 17.786 10.672 " transform="translate(188.816, 294.836)"/>
  <path style="fill:#111; fill-rule:nonzero;stroke:none;" d="M0 10.8852 C0.627 13.1502 2.447 14.8862 4.738 15.4072 C6.164 15.7182 7.655 15.3872 8.815 14.5002 C10.406 13.2062 11.45 11.3602 11.738 9.32924 C11.886 8.28824 11.886 7.23224 11.738 6.19224 C11.45 4.16124 10.406 2.31524 8.815 1.02124 C7.655 0.134237 6.164 -0.197763 4.738 0.115237 C2.447 0.634237 0.627 2.37124 0 4.63624 L0 10.8852 " transform="translate(195.619, 311.087)"/>
  <path style="fill:#fff;fill-rule:nonzero;stroke:none;" d="M22.677 27.59 L22.677 0 L15.873 0 L15.873 16.63 C15.873 19.135 13.843 21.165 11.338 21.165 C8.833 21.165 6.803 19.135 6.803 16.63 L6.803 0 L0 0 L0 17.764 C0 21.529 2.073 24.989 5.394 26.763 C8.715 28.539 12.742 28.34 15.873 26.248 L15.873 27.59 L22.677 27.59 " transform="translate(222.454, 305.041)"/>
  <path style="fill:#fff;fill-rule:nonzero;stroke:none;" d="M0 10.205 L2.645 10.205 L2.645 3.292 L9.449 0 L9.449 10.205 L12.85 10.205 L12.85 17.008 L9.449 17.008 L9.449 29.481 C9.449 30.316 10.126 30.993 10.961 30.993 L12.113 30.993 L12.113 37.795 L7.181 37.795 C4.676 37.795 2.645 35.765 2.645 33.26 L2.645 17.008 L0 17.008 L0 10.205 " transform="translate(251.934, 294.836)"/>
  <path style="fill:#fff;fill-rule:nonzero;stroke:none;" d="M0 0 L6.802 0 L6.802 27.59 L0 27.59 L0 0 " transform="translate(272.722, 305.041)"/>
  <path style="fill:#fff;fill-rule:nonzero;stroke:none;" d="M8.314 4.158 C8.314 1.862 6.453 0 4.157 0 C1.861 0 0 1.862 0 4.158 C0 6.454 1.861 8.315 4.157 8.315 C6.453 8.315 8.314 6.454 8.314 4.158 " transform="translate(271.966, 294.08)"/>
  <path style="fill:#fff;fill-rule:nonzero;stroke:none;" d="M6.803 37.795 L6.803 29.533 L9.59 26.714 L17.285 37.795 L25.568 37.795 L14.455 21.792 L25.909 10.205 L16.343 10.205 L6.803 19.856 L6.803 0 L0 0 L0 37.795 L6.803 37.795 " transform="translate(288.595, 294.836)"/>
  <path style="fill:#fff;fill-rule:nonzero;stroke:none;" d="M68.523 25.96 L0 0 L0 26.626 L70.591 26.626 C69.891 26.439 69.2 26.217 68.523 25.96 " transform="translate(119.555, 137.04)"/>
  <path style="fill:#fff;fill-rule:nonzero;stroke:none;" d="M11.832 40.582 C14.039 39.478 16.287 38.458 18.571 37.524 C22.266 36.013 26.015 34.638 29.81 33.403 C33.454 32.217 37.156 31.225 40.904 30.43 C44.435 29.68 47.986 29.029 51.554 28.477 C55.066 27.932 58.602 27.554 62.15 27.342 C65.601 27.136 69.057 27.015 72.514 26.978 C75.97 27.015 79.426 27.136 82.876 27.342 C86.424 27.554 89.961 27.932 93.473 28.477 C97.04 29.029 100.592 29.68 104.123 30.43 C107.87 31.225 111.573 32.217 115.216 33.403 C119.012 34.638 122.762 36.013 126.456 37.524 C128.74 38.458 130.987 39.478 133.194 40.582 L146.247 9.613 C144.654 8.686 143.188 7.557 141.886 6.254 C137.881 2.25 132.449 0 126.786 0 C121.122 0 115.691 2.25 111.686 6.254 C107.682 10.259 102.25 12.509 96.586 12.509 L0 12.509 L11.832 40.582 " transform="translate(175.546, 181.393)"/>
</svg>
