<svg viewBox="85.5395 85.536 283.465 283.465" width="40" height="40" xmlns="http://www.w3.org/2000/svg">
  <path style="fill:#111; fill-rule:nonzero;stroke:none;" d="M72.6225 46.427 C71.3915 45.79 70.3025 44.912 69.4215 43.843 C65.4185 38.991 62.8405 33.124 61.9745 26.893 C61.5505 23.837 61.0255 20.796 60.4035 17.775 C59.3445 12.642 56.9965 7.86299 53.5795 3.88799 C51.3505 1.16199 47.9125 -0.279014 44.4055 0.0449856 C38.5055 0.588986 32.8895 2.83799 28.2445 6.51799 C27.4915 7.01899 26.8515 7.67299 26.3655 8.43599 C23.6515 12.699 22.9265 17.932 24.3795 22.773 L28.2585 32.8 L30.9245 41.444 C32.2055 44.524 35.1155 46.618 38.4435 46.854 C39.8885 46.691 41.3535 46.859 42.7245 47.346 C43.5985 47.656 44.2645 48.376 44.5075 49.272 C44.7485 50.168 44.5335 51.125 43.9335 51.833 L40.8855 56.569 L38.5795 61.326 C36.3355 65.153 35.1695 69.516 35.2025 73.953 L36.5485 93.27 C36.5295 95.804 35.6195 98.25 33.9755 100.18 L16.4495 120.759 L15.5635 121.514 L8.79945 127.572 L3.03545 132.668 C0.49845 134.431 -0.59955 137.637 0.32345 140.585 C1.24745 143.534 3.97945 145.54 7.06845 145.54 C10.3215 145.486 13.4025 144.066 15.5565 141.627 L19.8915 137.35 L21.8215 139.878 L52.5125 112.648 C50.5945 140.076 46.7955 167.339 41.1405 194.246 C40.7355 196.644 40.2435 199.028 39.6655 201.39 C41.7795 201.68 43.8965 201.956 46.0145 202.217 C46.0165 202.253 46.0185 202.29 46.0215 202.326 C45.6695 215.668 45.3675 229.013 45.1145 242.358 C45.0975 243.235 44.5985 244.032 43.8175 244.431 C36.5975 248.118 29.1465 251.332 21.5105 254.054 C20.0175 254.586 18.8645 255.795 18.4035 257.312 C17.9425 258.829 18.2275 260.474 19.1725 261.748 L54.7445 261.748 C55.2735 261.748 55.7655 261.476 56.0495 261.029 C59.1685 248.148 62.2485 235.256 65.2885 222.356 C66.6875 216.416 68.0355 210.465 69.3315 204.503 C78.6475 205.182 87.9835 205.583 97.3245 205.707 C97.5495 206.779 97.7045 207.865 97.7915 208.957 C98.8425 222.307 100.447 235.607 102.601 248.824 C102.76 249.797 102.192 250.744 101.259 251.061 C96.9645 252.522 92.8355 254.435 88.9445 256.767 C87.9695 257.352 87.3205 258.354 87.1845 259.482 C87.0505 260.611 87.4445 261.738 88.2545 262.536 L111.463 262.536 L127.135 257.999 C127.575 257.872 127.885 257.477 127.904 257.019 C127.93 256.393 127.893 255.765 127.794 255.147 C124.858 236.869 121.947 218.586 119.06 200.3 C118.489 195.218 118.109 190.117 117.922 185.006 C117.75 180.318 117.36 175.639 116.753 170.987 C116.835 167.779 116.974 164.573 117.173 161.37 C117.425 157.947 117.764 154.531 118.19 151.124 C118.425 147.599 118.4 144.06 118.118 140.538 C117.764 134.162 116.831 127.83 115.331 121.622 C114.083 116.46 112.406 111.412 110.319 106.529 C101.485 85.867 89.8725 66.508 75.7995 48.989 C74.9365 47.916 73.8535 47.042 72.6225 46.427 " transform="translate(197.844, 99.04)"/>
  <path style="fill:#111; fill-rule:nonzero;stroke:none;" d="M25.1142 0 L2.26818 0 C1.41818 0 0.639181 0.475 0.251181 1.23 C-0.137819 1.986 -0.0708193 2.896 0.423181 3.587 C8.91318 15.453 11.1302 30.696 6.37218 44.488 C6.13318 45.181 6.24418 45.947 6.66918 46.543 C7.09518 47.141 7.78218 47.496 8.51618 47.496 L25.1142 47.496 L41.7142 47.496 C42.4462 47.496 43.1342 47.141 43.5602 46.543 C43.9852 45.947 44.0962 45.181 43.8572 44.488 C39.0992 30.696 41.3162 15.453 49.8062 3.587 C50.3002 2.896 50.3672 1.986 49.9792 1.23 C49.5902 0.475 48.8122 0 47.9622 0 L25.1142 0 " transform="translate(141.807, 199.915)"/>
  <path style="fill:#111; fill-rule:nonzero;stroke:none;" d="M68.031 19.276 C68.031 18.675 68.27 18.098 68.695 17.673 C69.121 17.247 69.697 17.008 70.299 17.008 L111.118 17.008 C111.719 17.008 112.296 16.77 112.721 16.344 C113.146 15.919 113.386 15.342 113.386 14.74 L113.386 2.269 C113.386 1.016 112.37 0 111.118 0 L2.268 0 C1.015 0 0 1.016 0 2.269 L0 14.74 C0 15.342 0.239 15.919 0.664 16.344 C1.089 16.77 1.666 17.008 2.268 17.008 L43.086 17.008 C43.688 17.008 44.265 17.247 44.69 17.673 C45.115 18.098 45.354 18.675 45.354 19.276 L45.354 89.619 C45.354 90.871 44.339 91.887 43.086 91.887 L19.275 91.887 C18.023 91.887 17.007 92.901 17.007 94.154 L17.007 106.627 C17.007 107.879 18.023 108.895 19.275 108.895 L94.11 108.895 C95.362 108.895 96.377 107.879 96.377 106.627 L96.377 94.154 C96.377 92.901 95.362 91.887 94.11 91.887 L70.299 91.887 C69.046 91.887 68.031 90.871 68.031 89.619 L68.031 19.276 " transform="translate(110.229, 251.893)"/>
</svg>
