<svg viewBox="158.222 158.22 525.738 525.738" width="40" height="40" xmlns="http://www.w3.org/2000/svg">
  <path style="fill:#111; fill-rule:nonzero;stroke:none;" d="M0 77.6199 L0 246.681 L141.489 246.681 L141.489 33.5289 C122.191 5.57292 86.956 -6.58608 54.523 3.51992 C22.092 13.6269 0 43.6509 0 77.6199 " transform="translate(542.471, 395.219)"/>
  <path style="fill:#e23; fill-rule:nonzero;stroke:none;" d="M0 98.244 L51.708 74.975 L40.332 119.961 L21.559 113.838 L33.091 168.236 L74.617 131.255 L55.86 125.098 L95.142 35.161 L22.235 69.288 L51.708 11.376 L19.65 0 L0 98.244 " transform="translate(574.785, 431.026)"/>
  <path style="fill:#111; fill-rule:nonzero;stroke:none;" d="M0 275.011 L0 111.903 L125.736 111.903 L92.773 49.906 C62.466 42.1 31.296 38.149 0 38.149 L0 0 C34.236 0 68.348 4.134 101.593 12.313 C112.132 14.905 121.068 21.864 126.164 31.447 L169.957 113.811 C195.677 135.257 207.472 169.141 200.63 201.922 L186.929 253.054 L186.929 299.595 C186.929 319.962 170.418 336.473 150.051 336.473 C129.685 336.473 113.174 319.962 113.174 299.595 L113.174 275.011 L0 275.011 " transform="translate(158.222, 305.427)"/>
  <path style="fill:#111; fill-rule:nonzero;stroke:none;" d="M1.207 28.887 L1.454 29.007 L2.743 29.618 L3.527 29.993 L4.562 30.436 L5.682 30.922 L6.971 31.471 L8.049 31.851 L9.379 32.379 L10.668 32.801 L11.973 33.223 L13.135 33.582 L14.233 33.856 L15.501 34.152 L16.621 34.362 L17.762 34.595 L18.987 34.742 L20.126 34.869 L21.415 34.954 L22.788 34.932 L23.908 34.911 L25.091 34.785 L27.077 34.489 L28.387 34.194 L29.253 33.94 L30.472 33.515 L31.74 33.051 L33.303 32.417 L34.677 31.763 L36.007 31.087 L37.339 30.412 L38.522 29.715 L39.508 29.159 L40.797 28.399 L42.107 27.597 L43.1 27.027 L44.474 26.204 L45.635 25.55 L46.459 25.064 L47.428 24.538 L48.632 23.883 L49.984 23.186 L51.336 22.533 L52.435 22.068 L53.555 21.603 L54.675 21.161 L56.151 20.696 L56.785 20.484 L57.694 20.211 L58.222 20.105 L58.982 19.894 L60.06 19.682 L61.053 19.45 L62.173 19.324 L63.018 19.177 L64.239 19.029 L65.338 18.944 L66.268 18.86 L67.409 18.797 L68.36 18.733 L70.092 18.733 L71.444 18.755 L72.648 18.818 L73.579 18.851 L74.298 18.873 L75.269 18.936 L76.009 18.978 L76.769 19.042 L77.657 19.147 L78.438 19.21 L79.263 19.315 L80.108 19.421 L80.974 19.506 L81.819 19.632 L82.664 19.717 L83.467 19.844 L84.291 19.971 L85.114 20.055 L86.023 20.202 L87.038 20.37 L87.861 20.54 L88.706 20.666 L89.531 20.793 L90.354 20.941 L91.179 21.089 L92.002 21.236 L92.848 21.363 L93.692 21.532 L93.692 15.14 L96.217 15.14 L96.217 0 L134.069 0 L134.069 7.571 L158.009 7.571 C160.101 7.571 161.795 9.265 161.795 11.355 C161.795 13.446 160.101 15.14 158.009 15.14 L134.069 15.14 L134.069 35.33 L158.009 35.33 C160.101 35.33 161.795 37.024 161.795 39.114 C161.795 41.206 160.101 42.9 158.009 42.9 L134.069 42.9 L134.069 50.471 L96.217 50.471 L96.217 35.33 L93.692 35.33 L93.692 28.938 L92.848 28.769 L92.002 28.642 L91.179 28.495 L90.354 28.348 L89.531 28.2 L88.706 28.073 L87.861 27.946 L87.038 27.777 L86.023 27.608 L85.114 27.461 L84.291 27.376 L83.467 27.25 L82.664 27.124 L81.819 27.039 L80.974 26.912 L80.108 26.828 L79.263 26.723 L78.438 26.616 L77.657 26.554 L76.769 26.447 L76.009 26.385 L75.269 26.342 L74.298 26.278 L73.579 26.258 L72.648 26.223 L71.444 26.161 L70.092 26.14 L68.36 26.14 L67.409 26.203 L66.268 26.265 L65.338 26.35 L64.239 26.435 L63.018 26.583 L62.173 26.73 L61.053 26.857 L60.06 27.09 L58.982 27.3 L58.222 27.512 L57.694 27.617 L56.785 27.891 L56.151 28.102 L54.675 28.566 L53.555 29.011 L52.435 29.474 L51.336 29.938 L49.984 30.594 L48.632 31.29 L47.428 31.944 L46.459 32.471 L45.635 32.957 L44.474 33.61 L43.1 34.433 L42.107 35.004 L40.797 35.806 L39.508 36.566 L38.522 37.122 L37.339 37.818 L36.007 38.494 L34.677 39.169 L33.303 39.824 L31.74 40.457 L30.472 40.922 L29.253 41.347 L28.387 41.6 L27.077 41.895 L25.091 42.191 L23.908 42.318 L22.788 42.34 L21.415 42.36 L20.126 42.276 L18.987 42.149 L17.762 42.002 L16.621 41.769 L15.501 41.557 L14.233 41.262 L13.135 40.988 L11.973 40.629 L10.668 40.207 L9.379 39.785 L8.049 39.257 L6.971 38.878 L5.682 38.329 L4.562 37.843 L3.527 37.4 L2.743 37.024 L1.454 36.413 L0.63 36.012 L0.277 35.853 L0 35.733 L0.099 35.365 C0.547 33.219 0.916 31.058 1.207 28.887 " transform="translate(358.753, 471.984)"/>
</svg>
