<svg viewBox="158.222 158.22 525.738 525.738" width="40" height="40" xmlns="http://www.w3.org/2000/svg">
  <path style="fill:#111;fill-rule:nonzero;stroke:none;" d="M67.595 33.796 C67.595 15.131 52.463 0 33.797 0 C15.132 0 0 15.131 0 33.796 C0 52.462 15.132 67.594 33.797 67.594 C52.463 67.594 67.595 52.462 67.595 33.796 " transform="translate(240.838, 488.839)"/>
  <path style="fill:#111;fill-rule:nonzero;stroke:none;" d="M67.595 33.796 C67.595 15.131 52.463 0 33.797 0 C15.131 0 0 15.131 0 33.796 C0 52.462 15.131 67.594 33.797 67.594 C52.463 67.594 67.595 52.462 67.595 33.796 " transform="translate(511.218, 488.839)"/>
  <path style="fill:#111;fill-rule:nonzero;stroke:none;" d="M30.364 6.228 L23.72 19.516 C22.938 21.08 22.532 22.805 22.532 24.554 L22.532 42.404 C22.532 44.153 22.938 45.878 23.72 47.442 L30.683 61.368 C32.592 65.185 36.492 67.596 40.76 67.596 L80.147 67.596 L42.461 138.258 L6.571 154.71 C2.567 156.546 0 160.546 0 164.951 L0 200.67 C0 202.461 0.427 204.226 1.245 205.818 L8.122 219.201 C10.053 222.956 13.92 225.316 18.142 225.316 L45.063 225.316 C45.063 209.218 53.652 194.341 67.595 186.291 C81.537 178.241 98.716 178.241 112.658 186.291 C126.601 194.341 135.19 209.218 135.19 225.316 L315.443 225.316 C315.443 200.43 335.619 180.254 360.506 180.254 C385.394 180.254 405.569 200.43 405.569 225.316 L428.101 225.316 L461.898 225.316 C468.12 225.316 473.164 220.273 473.164 214.052 L473.164 33.491 C473.164 27.268 468.12 22.224 461.898 22.224 L293.816 22.224 C292.605 22.224 291.402 22.029 290.254 21.646 L227.051 0.578 C225.902 0.196 224.699 0 223.488 0 L40.441 0 C36.174 0 32.273 2.411 30.364 6.228 " transform="translate(184.509, 297.319)"/>
  <path style="fill:#fff;fill-rule:nonzero;stroke:none;" d="M29.524 3.567 C30.701 1.371 32.99 0 35.482 0 L82.984 0 C84.776 0 86.495 0.713 87.764 1.98 C89.031 3.248 89.743 4.967 89.743 6.76 L89.743 51.902 L0 58.661 L29.524 3.567 " transform="translate(238.236, 376.916)"/>
  <path style="fill:#fff;fill-rule:nonzero;stroke:none;" d="M6.76 33.798 L83.367 33.798 C87.1 33.798 90.126 30.772 90.126 27.038 L90.126 6.76 C90.126 3.027 87.1 0 83.367 0 L6.76 0 C3.026 0 0 3.027 0 6.76 L0 27.038 C0 30.772 3.026 33.798 6.76 33.798 " transform="translate(244.982, 317.799)"/>
  <path style="fill:#fff;fill-rule:nonzero;stroke:none;" d="M6.76 67.595 L105.899 67.595 C109.632 67.595 112.659 64.569 112.659 60.836 L112.659 6.76 C112.659 3.027 109.632 0 105.899 0 L6.76 0 C3.027 0 0 3.027 0 6.76 L0 60.836 C0 64.569 3.027 67.595 6.76 67.595 " transform="translate(368.926, 365.65)"/>
  <path style="fill:#fff;fill-rule:nonzero;stroke:none;" d="M6.759 67.595 L60.836 67.595 C64.568 67.595 67.595 64.569 67.595 60.836 L67.595 6.76 C67.595 3.027 64.568 0 60.836 0 L6.759 0 C3.025 0 0 3.027 0 6.76 L0 60.836 C0 64.569 3.025 67.595 6.759 67.595 " transform="translate(553.296, 365.65)"/>
</svg>
