<svg viewBox="85.5395 85.536 283.465 283.465" width="40" height="40" xmlns="http://www.w3.org/2000/svg">
  <path style="fill:#111;fill-rule:nonzero;stroke:none;" d="M84.5324 98.908 L99.6504 98.908 L99.6504 243.779 L226.038 243.779 L226.038 23.811 C226.038 10.66 215.378 0 202.228 0 L123.461 0 C110.311 0 99.6504 10.66 99.6504 23.811 L99.6504 25.173 L77.7674 25.173 C54.6734 25.173 34.4584 40.684 28.4814 62.991 L1.44542 163.892 C-2.81158 179.76 2.51042 196.654 15.0924 207.217 C27.6744 217.778 45.2364 220.094 60.1254 213.152 C75.0144 206.212 84.5324 191.273 84.5324 174.846 L84.5324 98.908 " transform="translate(105.381, 105.378)"/>
  <path style="fill:#fff;fill-rule:nonzero;stroke:none;" d="M0.702084 124.11 C-1.36592 131.818 1.22008 140.026 7.33208 145.158 C13.4441 150.289 21.9761 151.413 29.2091 148.042 C36.4431 144.67 41.0671 137.412 41.0671 129.432 L41.0671 41.211 L64.4661 19.006 L77.9171 19.006 L77.9171 0 L55.7081 0 C42.8791 0 31.6481 8.617 28.3281 21.009 L0.702084 124.11 " transform="translate(127.114, 150.792)"/>
  <path style="fill:#fff;fill-rule:nonzero;stroke:none;" d="M0 44.052 L0 0 L68.176 0 L68.176 44.052 L0 44.052 " transform="translate(233.351, 130.551)"/>
</svg>
