<svg viewBox="85.5395 85.536 283.465 283.465" width="40" height="40" xmlns="http://www.w3.org/2000/svg">
<defs>
<g id="pumps">
  <path style="fill:#059; fill-rule:nonzero;stroke:none;" d="M281.176 180.161v-13.088h47.262v30.539h-26.54v121.006h47.262v-152.489c0-9.116-7.389-16.507-16.506-16.507h-54.603c-9.117 0-16.506 7.391-16.506 16.507v.944v13.088h19.631z"/>
  <path style="fill:#111; fill-rule:nonzero;stroke:none;" d="M203.801,248.727h10.48v100.430h87.617v-152.489c0-9.117-7.39-16.507-16.505-16.507h-54.604c-9.117 0-16.508 7.39-16.508 16.507v.944h-15.17c-16.009 0-30.021 10.753-34.166 26.217l-18.742 69.948c-2.951 10.999.738 22.712 9.461 30.033c8.721 7.323 20.897 8.927 31.217 4.116c10.322-4.812 16.92-15.168 16.92-26.556v-52.643z"/>
  <path style="fill:#fff;fill-rule:nonzero;stroke:none;" d="M233.914,197.612h47.262v30.539h-47.262z"/>
  <path style="fill:#fff;fill-rule:nonzero;stroke:none;" d="M160.753882,297.681c-1.434 5.343.359 11.034 4.595998 14.591c4.238 3.557 10.15202 4.336 15.16602 1.998c5.015-2.336 8.22-7.368 8.22-12.9v-61.158l16.221-15.393h9.324v-13.176h-15.394c-8.895 0-16.68 5.974-18.983 14.565l-19.150018 71.473z"/>
</g>
</defs>

<!-- H4-1. CNG -->
<view id="cng" viewBox="85.5395 85.536 283.465 283.465"/>
<use href="#pumps" x="0" y="0"/>
<path style="fill:#111; fill-rule:nonzero;stroke:none;" d="M36.0173 15.6764 L43.3533 8.33943 C38.6563 2.95043 31.8263 -0.0985678 24.6803 0.00243216 C18.3323 -0.0255678 12.2713 2.64143 8.00432 7.33943 C2.80732 13.3614 -0.0346805 21.0614 0.000319461 29.0164 C-0.0346805 36.9704 2.80732 44.6704 8.00432 50.6934 C12.2713 55.3914 18.3323 58.0574 24.6803 58.0294 C36.8343 58.5884 47.2713 49.4724 48.3553 37.3534 L48.3553 26.6814 L24.6803 26.6814 L24.6803 37.0194 L38.0173 37.0194 C37.2343 42.8084 32.5063 47.2594 26.6803 47.6914 C26.0143 47.7434 25.3463 47.7434 24.6803 47.6914 C21.0683 47.7434 17.6313 46.1474 15.3423 43.3554 C12.0683 39.2974 10.3013 34.2304 10.3383 29.0164 C10.3013 23.8014 12.0683 18.7344 15.3423 14.6754 C17.6313 11.8844 21.0683 10.2894 24.6803 10.3404 C29.0883 10.2344 33.2893 12.2114 36.0173 15.6764 " transform="translate(208.754, 102.997)"/>
<path style="fill:#111; fill-rule:nonzero;stroke:none;" d="M0 0 L11.674 0 L33.684 37.684 L33.684 0 L44.022 0 L44.022 56.693 L32.813 56.693 L10.34 18.214 L10.34 56.693 L0 56.693 L0 0 " transform="translate(153.398, 103.677)"/>
<path style="fill:#111; fill-rule:nonzero;stroke:none;" d="M40.3616 5.80234 C35.2776 1.48834 28.6526 -0.560662 22.0206 0.132338 C14.2976 1.34434 7.54564 6.00834 3.67864 12.8043 C1.13164 17.7483 -0.130357 23.2533 0.0106428 28.8123 C-0.0773572 34.6183 1.29964 40.3533 4.01264 45.4863 C7.72164 52.3153 14.6116 56.8253 22.3546 57.4923 C28.8796 58.1403 35.3856 56.0913 40.3616 51.8223 L33.6336 43.9753 C30.7796 46.4223 27.0456 47.5873 23.3076 47.1973 C19.0206 46.8513 15.1936 44.3723 13.1236 40.6013 C11.2076 36.9533 10.2546 32.8773 10.3526 28.7583 C10.2196 24.9403 11.0516 21.1503 12.7686 17.7383 C15.0476 13.8523 18.9206 11.1653 23.3586 10.3903 C27.0986 10.0693 30.8116 11.2553 33.6746 13.6843 L40.3616 5.80234 " transform="translate(101.87, 103.261)"/>

<!-- H4-2. LPG -->
<view id="lpg" viewBox="85.5395 385.536 283.465 283.465"/>
<use href="#pumps" x="0" y="300"/>
<g transform="translate(0,300)">
<path style="fill:#111; fill-rule:nonzero;stroke:none;" d="M36.0174 15.6764 L43.3544 8.33943 C38.6564 2.95043 31.8264 -0.0985678 24.6784 0.00243216 C18.3314 -0.0255678 12.2714 2.64143 8.00336 7.33943 C2.80636 13.3614 -0.0366434 21.0614 0.00035665 29.0164 C-0.0366434 36.9704 2.80636 44.6704 8.00336 50.6924 C12.2714 55.3914 18.3314 58.0574 24.6784 58.0294 C36.8334 58.5884 47.2714 49.4724 48.3564 37.3534 L48.3564 26.6814 L24.6784 26.6814 L24.6784 37.0194 L38.0184 37.0194 C37.2334 42.8084 32.5054 47.2594 26.6794 47.6914 C26.0134 47.7434 25.3444 47.7434 24.6784 47.6914 C21.0684 47.7434 17.6314 46.1474 15.3404 43.3554 C12.0674 39.2974 10.2994 34.2304 10.3384 29.0164 C10.2994 23.8014 12.0674 18.7344 15.3404 14.6754 C17.6314 11.8844 21.0684 10.2894 24.6784 10.3404 C29.0874 10.2344 33.2884 12.2114 36.0174 15.6764 " transform="translate(189.083, 102.997)"/>
<path style="fill:#111; fill-rule:nonzero;stroke:none;" d="M10.339 56.693 L0 56.693 L0 0 L22.011 0 C31.312 0 38.852 7.54 38.852 16.841 C38.852 26.142 31.312 33.682 22.011 33.682 L10.339 33.682 L10.339 56.693 " transform="translate(142.73, 103.677)"/>
<path style="fill:#fff;fill-rule:nonzero;stroke:none;" d="M0 13.006 L0 0 L11.672 0 C15.263 0 18.175 2.912 18.175 6.503 C18.175 10.095 15.263 13.006 11.672 13.006 L0 13.006 " transform="translate(153.069, 114.015)"/>
<path style="fill:#111; fill-rule:nonzero;stroke:none;" d="M10.338 23.344 L10.338 46.355 L28.347 46.355 L28.347 56.693 L0 56.693 L0 23.344 L0 0 L10.338 0 L10.338 23.344 " transform="translate(105.382, 103.677)"/>
</g>

<!-- H4-3. LNG -->
<view id="lng" viewBox="85.5395 685.536 283.465 283.465"/>
<use href="#pumps" x="0" y="600"/>
<g transform="translate(0,600) scale(.5391754 .5391754)">
<path style="fill:#111; fill-rule:nonzero;stroke:none;" d="M19.126 85.674 L52.399 85.674 L52.399 104.8 L0 104.8 L0 0 L19.126 0 L19.126 85.674 " transform="translate(187.371, 191.573)"/>
<path style="fill:#111; fill-rule:nonzero;stroke:none;" d="M0 0 L21.615 0 L62.224 69.692 L62.224 0 L81.35 0 L81.35 104.8 L60.851 104.8 L19.126 33.456 L19.126 104.8 L0 104.8 L0 0 " transform="translate(272.651, 191.573)"/>
<path style="fill:#111; fill-rule:nonzero;stroke:none;" d="M46.243 19.126 L45.326 19.126 C38.427 19.126 32.793 21.791 28.427 27.117 C22.225 34.803 19.126 43.537 19.126 53.317 L19.126 53.972 C19.126 63.754 22.225 72.488 28.427 80.172 C32.793 85.5 38.427 88.163 45.326 88.163 L45.72 88.163 C46.329 88.163 46.94 88.163 47.554 88.163 C48.077 88.163 48.686 88.163 49.388 88.163 C54.713 87.815 59.343 85.785 63.272 82.071 C67.202 78.36 69.561 73.798 70.347 68.382 L45.72 68.382 L45.72 49.387 L89.474 49.387 L89.474 69.037 C88.511 79.867 84.015 88.949 75.979 96.285 C67.944 103.621 58.47 107.289 47.554 107.289 C46.94 107.289 46.329 107.289 45.72 107.289 C33.387 107.289 23.08 102.749 14.803 93.665 C4.933 82.313 0 69.082 0 53.972 L0 53.317 C0 38.297 4.933 25.066 14.803 13.624 C23.08 4.542 33.387 0 45.72 0 L46.243 0 C59.953 0 71.265 5.154 80.173 15.458 L66.679 28.951 C61.438 22.401 54.627 19.126 46.243 19.126 " transform="translate(388.586, 190.787)"/>
</g>

<!-- H4-4. H2 -->
<view id="hydrogen" viewBox="85.5395 985.536 283.465 283.465"/>
<use href="#pumps" x="0" y="900"/>
<g transform="translate(0,900) scale(.5391754 .5391754)">
<path style="fill:#111; fill-rule:nonzero;stroke:none;" d="M0 104.8 L0 0 L19.126 0 L19.126 39.43 L57.901 39.43 L57.901 0 L77.027 0 L77.027 104.8 L57.901 104.8 L57.901 58.556 L19.126 58.556 L19.126 104.8 L0 104.8 " transform="translate(203.873, 192.573)"/>
<path style="fill:#111; fill-rule:nonzero;stroke:none;" d="M42.121 48.035 L42.121 58.62 L0 58.62 C0 58.23 0 57.842 0 57.452 C0 52.44 1.216 47.767 3.65 43.435 C6.083 39.104 9.441 35.723 13.724 33.288 L28.105 25.039 C29.565 24.163 30.587 22.923 31.171 21.316 C31.511 20.44 31.682 19.517 31.682 18.542 C31.682 17.619 31.511 16.718 31.171 15.842 C30.392 13.603 28.909 12.095 26.719 11.315 C24.917 10.829 23.092 10.585 21.244 10.585 C19.393 10.585 17.568 10.829 15.768 11.315 C14.21 11.851 12.969 12.775 12.045 14.09 C11.12 15.404 10.659 16.864 10.659 18.47 C10.659 18.664 10.659 18.81 10.659 18.908 L0 18.908 C0 18.762 0 18.542 0 18.25 C0 14.454 1.107 11.012 3.322 7.921 C5.536 4.831 8.419 2.654 11.973 1.388 C15.086 0.464 18.274 0 21.535 0 C24.357 0 27.107 0.366 29.785 1.096 C35.234 2.994 39.006 6.643 41.099 12.045 C41.829 14.139 42.194 16.305 42.194 18.542 C42.194 20.782 41.829 22.948 41.099 25.039 C39.494 29.127 36.866 32.219 33.215 34.31 L18.834 42.487 C16.596 43.947 14.77 45.797 13.359 48.035 L42.121 48.035 " transform="translate(310.026, 264.753)"/>
</g>
</svg>
