<svg viewBox="85.5395 85.536 283.465 283.465" width="40" height="40" xmlns="http://www.w3.org/2000/svg">
  <path style="fill:#111; fill-rule:nonzero;stroke:none;" d="M181.16 152.598 C187.186 142.879 191.87 132.39 195.088 121.418 C221.336 119.426 241.944 98.111 243.049 71.811 L243.049 27.874 L202.863 27.874 L204.08 0 L131.081 0 L57.1367 0 L61.1597 92.126 C62.2497 113.556 68.7507 134.361 80.0567 152.598 L4.46669 152.598 C2.37059 153.377 0.786587 155.13 0.222087 157.293 C-0.342313 159.457 0.183887 161.76 1.63149 163.464 C19.1417 180.741 42.2847 191.138 66.8287 192.755 L131.081 192.755 L195.332 192.755 C219.877 191.138 243.02 180.741 260.529 163.464 C261.979 161.76 262.504 159.457 261.94 157.293 C261.375 155.13 259.791 153.377 257.695 152.598 L181.16 152.598 " transform="translate(95.9513, 132.308)"/>
  <path style="fill:#fff;fill-rule:nonzero;stroke:none;" d="M0 57.637 C14.549 53.698 25.036 41.015 26.173 25.984 L26.173 0 L3.154 0 L1.133 46.299 C0.941 50.089 0.578 53.867 0.047 57.625 C0.045 57.635 0.037 57.644 0.027 57.647 C0.018 57.65 0.006 57.646 0 57.637 " transform="translate(294.875, 178.135)"/>
</svg>
