<svg viewBox="85.5395 85.536 283.465 283.465" width="40" height="40" xmlns="http://www.w3.org/2000/svg">
  <path style="fill:#111; fill-rule:nonzero;stroke:none;" d="M218.773 197.58 L138.382 123.213 L135.498 120.545 L161.216 93.2636 C171.687 97.5236 183.603 96.1776 192.861 89.6916 C194.226 88.5376 195.564 87.3536 196.875 86.1386 L232.446 51.0366 C235.474 47.7326 235.404 42.6416 232.286 39.4226 C229.169 36.2036 224.083 35.9716 220.685 38.8926 L184.394 74.9796 C184.081 75.2506 183.722 75.4626 183.333 75.6056 C181.474 76.1906 179.445 75.6006 178.189 74.1076 C176.933 72.6166 176.696 70.5166 177.589 68.7826 C177.689 68.6056 177.809 68.4406 177.948 68.2926 L214.599 31.8496 C214.655 31.7846 214.706 31.7146 214.753 31.6406 C216.798 28.2826 216.355 23.9736 213.671 21.0996 C210.863 18.4546 206.654 17.9576 203.306 19.8746 C203.114 19.9936 202.934 20.1316 202.769 20.2856 L166.675 56.2866 C166.249 56.6676 165.773 56.9866 165.259 57.2356 C163.487 57.8646 161.511 57.4076 160.194 56.0636 C158.877 54.7206 158.46 52.7356 159.124 50.9756 C159.282 50.6556 159.486 50.3596 159.73 50.0976 L195.907 14.0136 C198.843 10.6276 198.631 5.5406 195.425 2.4096 C192.219 -0.721396 187.128 -0.812396 183.814 2.2026 L147.964 38.2316 C146.71 39.4966 145.56 40.8606 144.527 42.3096 C138.396 51.4566 137.185 63.0416 141.293 73.2576 L112.989 99.7216 L96.1283 84.1246 C101.652 69.0736 96.6613 52.1806 83.8453 42.5486 C68.3013 28.2436 49.4453 18.0266 28.9733 12.8156 C28.2483 12.6566 27.5133 12.5426 26.7743 12.4756 C22.7053 12.2136 18.6353 12.9586 14.9233 14.6436 C14.0113 15.0706 13.1293 15.5576 12.2833 16.1036 C10.3003 17.4936 8.63832 19.2926 7.40932 21.3776 C5.17732 25.5136 4.16632 30.1986 4.49232 34.8866 C4.54132 35.5606 4.64432 36.2306 4.80132 36.8886 C10.0483 57.3956 20.3203 76.2726 34.6913 91.8156 C44.3523 104.61 61.2553 109.562 76.2943 104.004 L91.2253 120.071 L4.66332 201.006 C3.72032 202.124 2.86932 203.318 2.12132 204.575 C-1.83868 212.326 -0.14168 221.766 6.27032 227.651 C12.3453 234.324 22.2223 235.916 30.0863 231.491 C31.1063 230.895 32.0543 230.182 32.9093 229.367 L113.425 143.959 L116.411 147.173 L190.085 226.449 C190.702 227.039 191.355 227.59 192.04 228.096 C200.103 233.115 210.611 231.568 216.884 224.439 C223.771 218.351 225.446 208.27 220.9 200.283 C220.247 199.339 219.536 198.436 218.773 197.58 " transform="translate(114.325, 106.294)"/>
</svg>
