<svg viewBox="85.5395 85.536 283.465 283.465" width="40" height="40" xmlns="http://www.w3.org/2000/svg">
  <path style="fill:#111; fill-rule:nonzero;stroke:none;" d="M250.395 183.519 C250.397 181.632 250.249 179.748 249.951 177.885 C238.733 137.594 204.839 107.689 163.465 101.574 C157.246 94.448 149.904 88.384 141.733 83.622 L141.733 16.062 C141.473 7.117 134.147 0 125.197 0 C116.248 0 108.921 7.117 108.662 16.062 L108.662 37.795 L33.071 37.795 L33.071 16.062 C32.812 7.117 25.485 0 16.536 0 C7.586 0 0.26 7.117 0 16.062 L0 175.747 C1.262 183.903 8.283 189.92 16.536 189.92 C24.789 189.92 31.809 183.903 33.071 175.747 L33.071 142.204 L94.488 193.739 L94.488 236.22 C95.256 244.78 102.43 251.338 111.024 251.338 C119.618 251.338 126.791 244.78 127.559 236.22 L127.559 194.645 L217.322 194.645 L217.322 236.22 C218.091 244.78 225.264 251.338 233.859 251.338 C242.452 251.338 249.625 244.78 250.395 236.22 L250.395 183.396 L250.395 183.519 " transform="translate(103.492, 100.655)"/>
  <path style="fill:#fff;fill-rule:nonzero;stroke:none;" d="M28.819 38.9915 C58.301 22.3595 93.33 18.6015 125.669 28.5975 C91.576 -3.58354 40.26 -9.21354 0 14.8095 L28.819 38.9915 " transform="translate(136.563, 172.215)"/>
</svg>
