<svg viewBox="85.5395 85.536 283.465 283.465" width="40" height="40" xmlns="http://www.w3.org/2000/svg">
  <path style="fill:#111; fill-rule:nonzero;stroke:none;" d="M35.905 111.117 C33.889 135.237 21.028 157.136 0.9449 170.644 C14.134 174.21 28.193 172.517 40.157 165.921 L40.157 200.409 L0 200.409 L0 222.14 L254.173 222.14 L254.646 222.14 L254.646 200.409 L254.173 200.409 L243.307 200.409 L243.307 92.22 L262.204 92.22 L173.15 0 L84.095 92.22 L102.992 92.22 L102.992 200.409 L54.33 200.409 L54.33 165.921 C67.176 172.422 81.928 174.097 95.905 170.644 C74.702 158.156 61.341 135.709 60.472 111.117 C68.674 118.234 78.939 122.539 89.764 123.4 C66.254 101.273 51.496 71.422 48.189 39.306 C44.13 71.004 29.868 100.521 7.559 123.4 C18.038 122.286 27.927 118 35.905 111.117 " transform="translate(98.768, 111.427)"/>
  <path style="fill:#fff;fill-rule:nonzero;stroke:none;" d="M0 0 L0 56.221 L37.796 56.221 L37.796 0 L0 0 " transform="translate(253.255, 255.615)"/>
</svg>
