<svg viewBox="85.5395 85.536 283.465 283.465" width="40" height="40" xmlns="http://www.w3.org/2000/svg">
  <path style="fill:#111; fill-rule:nonzero;stroke:none;" d="M0 40.77 L58.225 0 L116.451 40.77 L108.697 51.844 L98.383 44.622 L98.383 85.637 L58.225 85.637 L18.068 85.637 L18.068 44.622 L7.754 51.844 L0 40.77 " transform="translate(236.844, 101.816)"/>
  <path style="fill:#111; fill-rule:nonzero;stroke:none;" d="M0 55.249 L78.9039 0 L157.807 55.249 L147.299 70.256 L133.323 60.47 L133.323 116.052 L78.9039 116.052 L24.4849 116.052 L24.4849 60.47 L10.5079 70.256 L0 55.249 " transform="translate(91.3141, 127.072)"/>
  <path style="fill:#111; fill-rule:nonzero;stroke:none;" d="M0 65.831 L94.017 0 L188.033 65.831 L175.513 83.712 L158.859 72.052 L158.859 138.28 L94.017 138.28 L29.174 138.28 L29.174 72.052 L12.52 83.712 L0 65.831 " transform="translate(175.196, 214.449)"/>
  <path style="fill:#fff;fill-rule:nonzero;stroke:none;" d="M0 13.166 L0 0 L33.795 0 L33.795 13.166 L0 13.166 " transform="translate(278.172, 146.638)"/>
  <path style="fill:#fff;fill-rule:nonzero;stroke:none;" d="M0 17.842 L0 0 L45.796 0 L45.796 17.842 L0 17.842 " transform="translate(147.32, 187.813)"/>
  <path style="fill:#fff;fill-rule:nonzero;stroke:none;" d="M0 21.26 L0 0 L54.566 0 L54.566 21.26 L0 21.26 " transform="translate(241.93, 286.823)"/>
</svg>
